<?xml version="1.0" encoding="UTF-8"?>
<svg version="1.1" xmlns="http://www.w3.org/2000/svg" width="1024" height="1024">
<path d="M0 0 C337.92 0 675.84 0 1024 0 C1024 337.92 1024 675.84 1024 1024 C686.08 1024 348.16 1024 0 1024 C0 686.08 0 348.16 0 0 Z " fill="#F4F8F9" transform="translate(0,0)"/>
<path d="M0 0 C23.42069414 20.34270947 41.70799902 50.86438108 44.67578125 82.22070312 C45.9517234 101.22223375 46.36580545 120.80387604 40.875 139.1875 C40.63362305 140.0134668 40.39224609 140.83943359 40.14355469 141.69042969 C30.51500991 173.72502207 8.77245468 201.29709515 -20.125 218.1875 C-20.78806152 218.57856934 -21.45112305 218.96963867 -22.13427734 219.37255859 C-37.73146284 228.44909525 -53.42014756 232.4263639 -71.125 235.1875 C-72.07632813 235.373125 -73.02765625 235.55875 -74.0078125 235.75 C-94.17074416 238.57988515 -114.11188961 234.67577525 -133.125 228.1875 C-134.11242187 227.90390625 -135.09984375 227.6203125 -136.1171875 227.328125 C-167.92002209 217.98989656 -195.14818972 193.06495823 -219.125 171.1875 C-216.94927712 168.80652025 -214.86576766 167.39606275 -212 165.9375 C-195.42794277 156.93970555 -183.02338469 142.0888913 -177.125 124.1875 C-173.63845524 125.6716373 -171.48308928 127.64964052 -168.875 130.375 C-164.79022188 134.54598286 -160.56891408 138.40674291 -156.125 142.1875 C-155.15691406 143.033125 -154.18882812 143.87875 -153.19140625 144.75 C-130.65520675 164.31900782 -108.62294765 176.89783716 -78.125 175.1875 C-59.17671404 172.69894538 -42.3457193 162.70175762 -30.33203125 147.9921875 C-16.99667692 130.15283932 -12.81470577 109.87639432 -15.79711914 88.0390625 C-18.65175277 70.83048926 -29.09586884 53.49806627 -43.125 43.1875 C-61.6805169 30.87839473 -83.03836025 25.87904306 -105.11328125 30.3125 C-121.33770668 35.02621115 -135.33603539 44.36753891 -148.125 55.1875 C-149.2147328 56.09127963 -150.30458416 56.99491632 -151.39453125 57.8984375 C-158.293763 63.67053849 -164.81455805 69.67490724 -171.03833008 76.17456055 C-172.36603606 77.54647428 -173.74148488 78.87188746 -175.125 80.1875 C-175.785 80.1875 -176.445 80.1875 -177.125 80.1875 C-177.5375 79.16011719 -177.95 78.13273437 -178.375 77.07421875 C-185.99874724 58.57890945 -196.74325621 46.13922378 -214.125 36.1875 C-215.79365302 35.19081806 -217.46105835 34.19202774 -219.125 33.1875 C-210.56781291 22.60361071 -199.88281771 14.40219915 -189.125 6.1875 C-188.52526367 5.72553223 -187.92552734 5.26356445 -187.30761719 4.78759766 C-131.75896909 -37.8375484 -56.16937627 -47.47739562 0 0 Z " fill="#34B2E1" transform="translate(760.125,413.8125)"/>
<path d="M0 0 C0.76328613 0.18272461 1.52657227 0.36544922 2.31298828 0.55371094 C30.01496972 7.39079572 54.67098568 22.2056994 76.25878906 40.53076172 C78.76438254 42.64498796 81.32172628 44.69379217 83.875 46.75 C89.07004099 50.99905477 94.05565172 55.46321188 99 60 C98 63 98 63 95.8828125 64.2890625 C94.97273438 64.72992188 94.06265625 65.17078125 93.125 65.625 C77.67526728 73.74061836 64.88409451 87.26215568 59.33105469 104.01855469 C58.8567975 105.67056441 58.42390363 107.33435847 58 109 C56 109 56 109 53.7265625 106.859375 C52.82679688 105.91578125 51.92703125 104.9721875 51 104 C43.67261134 96.48365289 36.25922071 89.51207787 28 83 C27.19046875 82.32324219 26.3809375 81.64648438 25.546875 80.94921875 C9.1488322 67.32826385 -9.11082067 57.81941946 -30.625 57.6875 C-31.49576172 57.68186035 -32.36652344 57.6762207 -33.26367188 57.67041016 C-49.48211078 57.85095504 -64.09980514 63.24023158 -77 73 C-77.73992187 73.55558594 -78.47984375 74.11117187 -79.2421875 74.68359375 C-93.4207843 86.18646314 -101.5511287 104.1926242 -104 122 C-106.03970187 142.2575108 -100.62648553 162.00645167 -88 178 C-87.50242187 178.67289063 -87.00484375 179.34578125 -86.4921875 180.0390625 C-76.64820318 192.45534423 -60.16898607 201.71734342 -44.52734375 203.75390625 C-17.87435401 205.61341716 1.0297294 199.27204866 22 183 C22.94359375 182.26910156 23.8871875 181.53820312 24.859375 180.78515625 C31.16571734 175.7455503 37.0751306 170.31220792 42.9765625 164.8125 C45.48398973 162.47578456 48.00486365 160.15690604 50.5625 157.875 C51.14128906 157.35679687 51.72007812 156.83859375 52.31640625 156.3046875 C54.11777154 154.90873388 55.93333596 153.94967057 58 153 C58.27972656 153.73863281 58.55945313 154.47726562 58.84765625 155.23828125 C67.01666903 175.91034897 80.21461304 189.40708511 100 199 C98.84635343 200.15364657 97.69202078 201.30661165 96.53515625 202.45703125 C95.51163964 203.4857566 94.49851715 204.5249288 93.49609375 205.57421875 C88.89282562 210.33277785 83.91634057 214.5081911 78.73144531 218.61914062 C76.8068298 220.15405677 74.9005373 221.71054014 72.9921875 223.265625 C50.74348551 241.19506432 25.1927308 256.05926623 -3 262 C-3.72968994 262.16991455 -4.45937988 262.3398291 -5.21118164 262.51489258 C-13.79835426 264.33351482 -22.33084221 264.35578447 -31.0625 264.3125 C-31.84034851 264.31034485 -32.61819702 264.3081897 -33.4196167 264.30596924 C-69.34801949 264.14595859 -98.78218704 251.74640509 -125 227 C-125.67546875 226.37738281 -126.3509375 225.75476563 -127.046875 225.11328125 C-146.39286423 206.65720753 -158.59854876 181.19173446 -163 155 C-163.20367187 153.92105469 -163.40734375 152.84210938 -163.6171875 151.73046875 C-168.3396985 123.94528418 -163.54921472 95.10471034 -151 70 C-150.67547852 69.34435059 -150.35095703 68.68870117 -150.01660156 68.01318359 C-134.27008337 36.77166468 -106.16682082 14.01310128 -73.28759766 2.72705078 C-50.08464435 -4.64737771 -23.69848191 -5.90152519 0 0 Z " fill="#4A57CA" transform="translate(383,385)"/>
<path d="M0 0 C1.64818407 1.34712259 3.27465797 2.72137776 4.875 4.125 C5.67164063 4.764375 6.46828125 5.40375 7.2890625 6.0625 C12.92940024 10.74077345 17.00222946 15.92856714 20.875 22.125 C21.349375 22.8675 21.82375 23.61 22.3125 24.375 C27.96499195 33.79581992 29.4411093 43.58302253 29.375 54.4375 C29.36927979 55.53473389 29.36355957 56.63196777 29.35766602 57.76245117 C29.16625863 66.47374279 27.90807507 73.30327865 23.875 81.125 C23.07835937 82.7028125 23.07835937 82.7028125 22.265625 84.3125 C17.57321204 92.92243203 12.17767802 101.23085571 2.875 105.125 C2.318125 105.681875 1.76125 106.23875 1.1875 106.8125 C0.754375 107.245625 0.32125 107.67875 -0.125 108.125 C-1.115 108.125 -2.105 108.125 -3.125 108.125 C-3.125 108.785 -3.125 109.445 -3.125 110.125 C-5.125 111.125 -7.125 112.125 -9.125 113.125 C-9.69347656 113.47304688 -10.26195312 113.82109375 -10.84765625 114.1796875 C-17.0348685 117.7790424 -23.0850457 117.93116866 -30.125 118.125 C-31.91164063 118.21974609 -31.91164063 118.21974609 -33.734375 118.31640625 C-51.05017381 118.88264018 -65.16861624 114.1060161 -78.4375 102.8125 C-85.87568928 95.77959668 -91.04651342 87.46332789 -95.125 78.125 C-95.51945312 77.2690625 -95.91390625 76.413125 -96.3203125 75.53125 C-102.58893077 59.92545906 -99.65241654 42.17870064 -93.91015625 26.890625 C-86.09430482 9.4012415 -70.57246557 -0.8143202 -53.48046875 -7.984375 C-36.28114321 -13.72651203 -14.74223585 -10.37492537 0 0 Z " fill="#447DD3" transform="translate(547.125,460.875)"/>
<path d="M0 0 C0 3.47560266 -1.16299854 5.17283385 -2.921875 8.08984375 C-3.97780545 9.96067704 -4.77849715 11.81496081 -5.5625 13.8125 C-7 17 -7 17 -10 19 C-8.65610276 14.49558061 -6.84328221 10.7205754 -4.4375 6.6875 C-3.50744141 5.11548828 -3.50744141 5.11548828 -2.55859375 3.51171875 C-1 1 -1 1 0 0 Z " fill="#6135CB" transform="translate(241,440)"/>
<path d="M0 0 C0.66 0.33 1.32 0.66 2 1 C-1.14520953 5.52910172 -4.07157609 7.71180319 -9 10 C-11.4375 9.75 -11.4375 9.75 -13 9 C-11.02 8.34 -9.04 7.68 -7 7 C-7 6.34 -7 5.68 -7 5 C-5.35666496 3.96210419 -3.68756133 2.96432076 -2 2 C-1.34 1.34 -0.68 0.68 0 0 Z " fill="#77E6F1" transform="translate(551,564)"/>
<path d="M0 0 C1.6035838 3.2071676 0.15457355 5.70337173 -0.8125 9.0625 C-1.16957031 10.33222656 -1.52664063 11.60195313 -1.89453125 12.91015625 C-3 16 -3 16 -5 17 C-4.06898067 10.84431924 -3.20578207 5.39154257 0 0 Z " fill="#6234C7" transform="translate(454,488)"/>
<path d="M0 0 C-4.62765919 2.54521255 -8.8896856 3.8545847 -14 5 C-10.69595986 0.91853865 -5.12984719 -2.25713276 0 0 Z " fill="#652AC5" transform="translate(493,456)"/>
<path d="M0 0 C0.66 0 1.32 0 2 0 C1.34 4.62 0.68 9.24 0 14 C-0.33 14 -0.66 14 -1 14 C-1.02685938 11.85423363 -1.04633088 9.70837355 -1.0625 7.5625 C-1.07410156 6.36753906 -1.08570313 5.17257812 -1.09765625 3.94140625 C-1 1 -1 1 0 0 Z " fill="#6856C8" transform="translate(449,506)"/>
</svg>
