<?xml version="1.0" encoding="UTF-8"?>
<svg version="1.1" xmlns="http://www.w3.org/2000/svg" width="500" height="500">
<path d="M0 0 C5.26543247 3.71558152 5.26543247 3.71558152 7.4765625 5.70703125 C7.4765625 6.36703125 7.4765625 7.02703125 7.4765625 7.70703125 C8.0334375 7.93390625 8.5903125 8.16078125 9.1640625 8.39453125 C12.17865009 10.1055134 14.22431079 12.07940425 16.4765625 14.70703125 C16.4765625 16.02703125 16.4765625 17.34703125 16.4765625 18.70703125 C14.97265625 19.91015625 14.97265625 19.91015625 12.9140625 20.95703125 C4.93088764 25.59151152 0.65101788 32.18923793 -2.5234375 40.70703125 C-5.92563659 39.07862826 -8.69164807 37.22417741 -11.5234375 34.70703125 C-11.5234375 34.04703125 -11.5234375 33.38703125 -11.5234375 32.70703125 C-12.1834375 32.70703125 -12.8434375 32.70703125 -13.5234375 32.70703125 C-13.5234375 32.04703125 -13.5234375 31.38703125 -13.5234375 30.70703125 C-14.0596875 30.48015625 -14.5959375 30.25328125 -15.1484375 30.01953125 C-17.5234375 28.70703125 -17.5234375 28.70703125 -20.5859375 26.14453125 C-23.32549438 23.57165326 -23.32549438 23.57165326 -26.5234375 22.70703125 C-26.5234375 22.04703125 -26.5234375 21.38703125 -26.5234375 20.70703125 C-27.22210938 20.50207031 -27.92078125 20.29710937 -28.640625 20.0859375 C-29.55070312 19.81652344 -30.46078125 19.54710937 -31.3984375 19.26953125 C-32.30335938 19.00269531 -33.20828125 18.73585937 -34.140625 18.4609375 C-36.5234375 17.70703125 -36.5234375 17.70703125 -38.5234375 16.70703125 C-52.13149807 15.78240582 -52.13149807 15.78240582 -64.5234375 20.70703125 C-65.22855469 21.15433594 -65.93367188 21.60164063 -66.66015625 22.0625 C-73.66565508 26.89253893 -77.82620218 32.51515555 -80.015625 40.76953125 C-82.10347033 52.84691346 -80.67726524 62.83796431 -73.8359375 72.95703125 C-69.08684226 78.89640606 -62.8349892 82.74539543 -55.5234375 84.70703125 C-52.88688647 84.94421053 -50.40610594 85.08833101 -47.7734375 85.08203125 C-47.07041504 85.08041992 -46.36739258 85.07880859 -45.64306641 85.07714844 C-36.92740004 84.87310943 -30.54326382 81.62090968 -23.5234375 76.70703125 C-22.8634375 76.70703125 -22.2034375 76.70703125 -21.5234375 76.70703125 C-21.5234375 76.04703125 -21.5234375 75.38703125 -21.5234375 74.70703125 C-20.05534245 73.39549362 -18.52147966 72.1570905 -16.9609375 70.95703125 C-13.74210675 68.45856206 -10.6124566 65.93479525 -7.5859375 63.20703125 C-4.5234375 60.70703125 -4.5234375 60.70703125 -1.5234375 60.70703125 C-0.73655305 57.929792 -0.40393826 55.48093048 -0.42578125 52.59765625 C-0.42900391 51.84355469 -0.43222656 51.08945313 -0.43554688 50.3125 C-0.44392578 49.53519531 -0.45230469 48.75789063 -0.4609375 47.95703125 C-0.46544922 47.16425781 -0.46996094 46.37148437 -0.47460938 45.5546875 C-0.48635185 43.60543617 -0.50428604 41.65622387 -0.5234375 39.70703125 C0.1365625 39.70703125 0.7965625 39.70703125 1.4765625 39.70703125 C1.6828125 38.88203125 1.8890625 38.05703125 2.1015625 37.20703125 C5.21179074 29.29008663 10.65071036 23.19153476 18.4765625 19.70703125 C27.18933169 17.44816516 35.61023925 17.50536839 44.4765625 18.70703125 C44.8065625 17.38703125 45.1365625 16.06703125 45.4765625 14.70703125 C46.1365625 14.70703125 46.7965625 14.70703125 47.4765625 14.70703125 C47.8478125 13.80984375 47.8478125 13.80984375 48.2265625 12.89453125 C49.65728775 10.39076206 51.0457207 9.22630737 53.4765625 7.70703125 C54.1365625 7.70703125 54.7965625 7.70703125 55.4765625 7.70703125 C55.4765625 7.04703125 55.4765625 6.38703125 55.4765625 5.70703125 C57.85720776 3.85810372 60.23285865 2.14183746 62.7265625 0.45703125 C63.4572998 -0.03804932 64.18803711 -0.53312988 64.94091797 -1.04321289 C70.89165414 -5.01232396 76.84913492 -8.55574434 83.4765625 -11.29296875 C84.45753906 -11.70417969 85.43851563 -12.11539063 86.44921875 -12.5390625 C101.23683732 -17.73179855 121.15961343 -18.02232492 135.4765625 -11.29296875 C140.99242991 -8.5714034 146.35228089 -5.70915649 151.4765625 -2.29296875 C151.4765625 -1.63296875 151.4765625 -0.97296875 151.4765625 -0.29296875 C152.04761719 -0.050625 152.61867188 0.19171875 153.20703125 0.44140625 C162.56654163 5.6608234 167.34420592 16.33196189 171.4765625 25.70703125 C172.00443359 26.87298828 172.00443359 26.87298828 172.54296875 28.0625 C178.76284453 45.68114394 176.76983347 65.53095572 168.80859375 82.19921875 C167.43769967 84.7586552 166.02112471 87.24953193 164.4765625 89.70703125 C163.8165625 89.70703125 163.1565625 89.70703125 162.4765625 89.70703125 C162.20070313 90.29742187 161.92484375 90.8878125 161.640625 91.49609375 C158.29786323 97.84509764 152.64661939 103.1155056 146.4765625 106.70703125 C145.4865625 106.70703125 144.4965625 106.70703125 143.4765625 106.70703125 C143.4765625 107.36703125 143.4765625 108.02703125 143.4765625 108.70703125 C127.71258891 117.71501616 108.93237433 119.35829609 91.4140625 115.08203125 C76.89933701 110.57091155 62.55288499 102.15865876 51.4765625 91.70703125 C51.4765625 91.04703125 51.4765625 90.38703125 51.4765625 89.70703125 C50.8784375 89.48015625 50.2803125 89.25328125 49.6640625 89.01953125 C46.88307847 87.35094083 45.9123709 85.57864805 44.4765625 82.70703125 C44.4765625 82.04703125 44.4765625 81.38703125 44.4765625 80.70703125 C43.3628125 81.03703125 42.2490625 81.36703125 41.1015625 81.70703125 C33.00769121 83.70551799 25.44417894 82.86252169 17.4765625 80.70703125 C17.5590625 81.44953125 17.6415625 82.19203125 17.7265625 82.95703125 C17.4765625 85.70703125 17.4765625 85.70703125 15.6015625 88.01953125 C13.4765625 89.70703125 13.4765625 89.70703125 11.4765625 89.70703125 C11.4765625 90.36703125 11.4765625 91.02703125 11.4765625 91.70703125 C9.68196399 93.33261791 7.8982819 94.80597196 5.9765625 96.26953125 C5.39994873 96.70990723 4.82333496 97.1502832 4.22924805 97.60400391 C-10.99860692 108.93117746 -27.65710544 117.14067843 -46.8984375 117.01953125 C-48.28760376 117.01215942 -48.28760376 117.01215942 -49.70483398 117.00463867 C-56.38383446 116.89008109 -62.27783496 116.19748959 -68.5234375 113.70703125 C-69.61914062 113.27390625 -70.71484375 112.84078125 -71.84375 112.39453125 C-74.7564287 111.20513113 -77.64549768 109.97774464 -80.5234375 108.70703125 C-80.5234375 108.04703125 -80.5234375 107.38703125 -80.5234375 106.70703125 C-81.07 106.6296875 -81.6165625 106.55234375 -82.1796875 106.47265625 C-85.3892702 105.42419257 -87.4309614 103.60793175 -90.0234375 101.45703125 C-91.43109375 100.30460937 -91.43109375 100.30460937 -92.8671875 99.12890625 C-95.4165662 96.80447273 -97.52499413 94.51616391 -99.5234375 91.70703125 C-99.5234375 91.04703125 -99.5234375 90.38703125 -99.5234375 89.70703125 C-100.1834375 89.70703125 -100.8434375 89.70703125 -101.5234375 89.70703125 C-102.65096399 87.47911127 -103.77551889 85.24977238 -104.8984375 83.01953125 C-105.21554688 82.39369141 -105.53265625 81.76785156 -105.859375 81.12304688 C-110.98040667 70.93432762 -112.86775513 62.08802489 -112.7734375 50.70703125 C-112.78117187 49.77375 -112.78890625 48.84046875 -112.796875 47.87890625 C-112.74658921 29.87659174 -104.99391769 15.10302158 -92.94921875 2.06640625 C-87.00942818 -3.71078136 -80.06675593 -7.9384908 -72.5234375 -11.29296875 C-71.6984375 -11.66421875 -70.8734375 -12.03546875 -70.0234375 -12.41796875 C-45.43369338 -21.02437919 -20.88015486 -13.89411798 0 0 Z M89.4765625 20.70703125 C89.4765625 21.36703125 89.4765625 22.02703125 89.4765625 22.70703125 C88.4865625 22.70703125 87.4965625 22.70703125 86.4765625 22.70703125 C86.4765625 23.36703125 86.4765625 24.02703125 86.4765625 24.70703125 C85.7959375 24.91328125 85.1153125 25.11953125 84.4140625 25.33203125 C80.56016875 27.13598152 77.39868486 29.60806575 74.4765625 32.70703125 C74.4765625 33.36703125 74.4765625 34.02703125 74.4765625 34.70703125 C73.8165625 34.70703125 73.1565625 34.70703125 72.4765625 34.70703125 C72.4765625 35.36703125 72.4765625 36.02703125 72.4765625 36.70703125 C69.50801764 38.24627673 66.61041242 39.45349128 63.4765625 40.70703125 C63.4765625 47.30703125 63.4765625 53.90703125 63.4765625 60.70703125 C65.7865625 61.69703125 68.0965625 62.68703125 70.4765625 63.70703125 C72.8515625 65.89453125 72.8515625 65.89453125 75.4765625 68.70703125 C85.00495583 78.0776044 95.96868499 85.9381204 109.7265625 86.08203125 C121.14798399 85.86990319 127.3414419 82.4167891 135.640625 74.73046875 C137.70054946 72.91553719 137.70054946 72.91553719 137.4765625 70.70703125 C138.1365625 70.70703125 138.7965625 70.70703125 139.4765625 70.70703125 C140.12651547 69.2922499 140.77134972 67.87511638 141.4140625 66.45703125 C141.95353516 65.27367187 141.95353516 65.27367187 142.50390625 64.06640625 C145.82772488 56.00381006 145.90943622 45.42809059 142.8515625 37.26953125 C137.6243842 26.28699288 129.89128083 19.88285588 118.4765625 15.70703125 C115.73340122 15.26253594 113.06476923 15.18417286 110.2890625 15.20703125 C109.18510132 15.20799805 109.18510132 15.20799805 108.05883789 15.20898438 C101.17811053 15.39444469 95.52820128 17.44217796 89.4765625 20.70703125 Z M48.4765625 19.70703125 C47.8165625 20.36703125 47.1565625 21.02703125 46.4765625 21.70703125 C46.97285156 22.01253906 47.46914063 22.31804687 47.98046875 22.6328125 C53.57569186 26.40189069 56.65916572 30.60309867 60.03125 36.4140625 C61.27123432 38.82027859 61.27123432 38.82027859 63.4765625 39.70703125 C63.2064849 33.22516874 60.90464492 29.40020951 56.4765625 24.70703125 C52.83117566 21.32207904 52.83117566 21.32207904 48.4765625 19.70703125 Z M0.4765625 61.70703125 C-0.51892959 64.85098651 -0.75866878 66.21928333 0.69921875 69.2421875 C5.63649158 76.05589711 5.63649158 76.05589711 12.4765625 80.70703125 C13.7965625 80.70703125 15.1165625 80.70703125 16.4765625 80.70703125 C15.32573525 77.25454949 14.7290198 77.020504 11.7890625 75.14453125 C7.38328889 72.01453022 5.15206808 68.3882105 2.60546875 63.68359375 C2.23292969 63.03132813 1.86039062 62.3790625 1.4765625 61.70703125 C1.1465625 61.70703125 0.8165625 61.70703125 0.4765625 61.70703125 Z M61.4765625 62.70703125 C60.98349609 63.55974609 60.98349609 63.55974609 60.48046875 64.4296875 C57.07920976 69.95097241 53.51322422 73.63139121 48.234375 77.39453125 C47.65429688 77.82765625 47.07421875 78.26078125 46.4765625 78.70703125 C46.4765625 79.03703125 46.4765625 79.36703125 46.4765625 79.70703125 C50.76277747 79.88942338 52.61693183 79.45489613 55.91015625 76.58984375 C61.28136818 70.96482904 61.28136818 70.96482904 63.4765625 63.70703125 C62.8165625 63.37703125 62.1565625 63.04703125 61.4765625 62.70703125 Z " fill="#37B3E2" transform="translate(218.5234375,201.29296875)"/>
<path d="M0 0 C5.26543247 3.71558152 5.26543247 3.71558152 7.4765625 5.70703125 C7.4765625 6.36703125 7.4765625 7.02703125 7.4765625 7.70703125 C8.0334375 7.93390625 8.5903125 8.16078125 9.1640625 8.39453125 C12.17865009 10.1055134 14.22431079 12.07940425 16.4765625 14.70703125 C16.4765625 16.02703125 16.4765625 17.34703125 16.4765625 18.70703125 C14.97265625 19.91015625 14.97265625 19.91015625 12.9140625 20.95703125 C4.93088764 25.59151152 0.65101788 32.18923793 -2.5234375 40.70703125 C-5.92563659 39.07862826 -8.69164807 37.22417741 -11.5234375 34.70703125 C-11.5234375 34.04703125 -11.5234375 33.38703125 -11.5234375 32.70703125 C-12.1834375 32.70703125 -12.8434375 32.70703125 -13.5234375 32.70703125 C-13.5234375 32.04703125 -13.5234375 31.38703125 -13.5234375 30.70703125 C-14.0596875 30.48015625 -14.5959375 30.25328125 -15.1484375 30.01953125 C-17.5234375 28.70703125 -17.5234375 28.70703125 -20.5859375 26.14453125 C-23.32549438 23.57165326 -23.32549438 23.57165326 -26.5234375 22.70703125 C-26.5234375 22.04703125 -26.5234375 21.38703125 -26.5234375 20.70703125 C-27.22210938 20.50207031 -27.92078125 20.29710937 -28.640625 20.0859375 C-29.55070312 19.81652344 -30.46078125 19.54710937 -31.3984375 19.26953125 C-32.30335938 19.00269531 -33.20828125 18.73585937 -34.140625 18.4609375 C-36.5234375 17.70703125 -36.5234375 17.70703125 -38.5234375 16.70703125 C-52.13149807 15.78240582 -52.13149807 15.78240582 -64.5234375 20.70703125 C-65.22855469 21.15433594 -65.93367188 21.60164063 -66.66015625 22.0625 C-73.66565508 26.89253893 -77.82620218 32.51515555 -80.015625 40.76953125 C-82.10347033 52.84691346 -80.67726524 62.83796431 -73.8359375 72.95703125 C-69.08684226 78.89640606 -62.8349892 82.74539543 -55.5234375 84.70703125 C-52.88688647 84.94421053 -50.40610594 85.08833101 -47.7734375 85.08203125 C-47.07041504 85.08041992 -46.36739258 85.07880859 -45.64306641 85.07714844 C-36.92740004 84.87310943 -30.54326382 81.62090968 -23.5234375 76.70703125 C-22.8634375 76.70703125 -22.2034375 76.70703125 -21.5234375 76.70703125 C-21.5234375 76.04703125 -21.5234375 75.38703125 -21.5234375 74.70703125 C-19.1068608 72.4975897 -17.02168368 70.90146878 -13.9609375 69.70703125 C-11.10869441 68.53688024 -9.56855168 66.97938034 -7.5234375 64.70703125 C-4.44565872 65.73295751 -3.67893276 66.46172369 -1.5234375 68.70703125 C-0.0384375 69.69703125 -0.0384375 69.69703125 1.4765625 70.70703125 C1.6209375 71.32578125 1.7653125 71.94453125 1.9140625 72.58203125 C2.67213178 75.44584854 4.38128001 76.67933852 6.4765625 78.70703125 C6.4765625 79.36703125 6.4765625 80.02703125 6.4765625 80.70703125 C7.2190625 80.66578125 7.9615625 80.62453125 8.7265625 80.58203125 C11.56415202 80.71101259 13.06430188 81.27754347 15.4765625 82.70703125 C14.90311313 85.57427811 14.615111 86.56848275 12.4765625 88.70703125 C11.1565625 88.70703125 9.8365625 88.70703125 8.4765625 88.70703125 C8.2496875 89.49078125 8.0228125 90.27453125 7.7890625 91.08203125 C6.12683015 94.40649595 4.81440106 94.37189583 1.4765625 95.70703125 C1.17492187 96.49207031 0.87328125 97.27710938 0.5625 98.0859375 C-2.50306388 105.48519421 -14.57048948 109.74974392 -21.5234375 112.70703125 C-35.99648904 118.15333636 -53.93777026 119.52312286 -68.5234375 113.70703125 C-69.61914062 113.27390625 -70.71484375 112.84078125 -71.84375 112.39453125 C-74.7564287 111.20513113 -77.64549768 109.97774464 -80.5234375 108.70703125 C-80.5234375 108.04703125 -80.5234375 107.38703125 -80.5234375 106.70703125 C-81.07 106.6296875 -81.6165625 106.55234375 -82.1796875 106.47265625 C-85.3892702 105.42419257 -87.4309614 103.60793175 -90.0234375 101.45703125 C-91.43109375 100.30460937 -91.43109375 100.30460937 -92.8671875 99.12890625 C-95.4165662 96.80447273 -97.52499413 94.51616391 -99.5234375 91.70703125 C-99.5234375 91.04703125 -99.5234375 90.38703125 -99.5234375 89.70703125 C-100.1834375 89.70703125 -100.8434375 89.70703125 -101.5234375 89.70703125 C-102.65096399 87.47911127 -103.77551889 85.24977238 -104.8984375 83.01953125 C-105.21554688 82.39369141 -105.53265625 81.76785156 -105.859375 81.12304688 C-110.98040667 70.93432762 -112.86775513 62.08802489 -112.7734375 50.70703125 C-112.78117187 49.77375 -112.78890625 48.84046875 -112.796875 47.87890625 C-112.74658921 29.87659174 -104.99391769 15.10302158 -92.94921875 2.06640625 C-87.00942818 -3.71078136 -80.06675593 -7.9384908 -72.5234375 -11.29296875 C-71.6984375 -11.66421875 -70.8734375 -12.03546875 -70.0234375 -12.41796875 C-45.43369338 -21.02437919 -20.88015486 -13.89411798 0 0 Z " fill="#4C58CA" transform="translate(218.5234375,201.29296875)"/>
<path d="M0 0 C1.93358937 1.24965601 3.57352177 1.60460727 5.7890625 2.15625 C11.53071151 7.18019289 16.35034094 13.38777347 16.94702148 21.2331543 C16.98507276 23.50255249 16.96406005 25.76213022 16.9140625 28.03125 C16.90503906 28.815 16.89601563 29.59875 16.88671875 30.40625 C16.86334313 32.32305055 16.82747903 34.23969191 16.7890625 36.15625 C16.4590625 36.15625 16.1290625 36.15625 15.7890625 36.15625 C15.7890625 32.19625 15.7890625 28.23625 15.7890625 24.15625 C15.1290625 24.15625 14.4690625 24.15625 13.7890625 24.15625 C13.9746875 25.105 14.1603125 26.05375 14.3515625 27.03125 C14.7890625 30.15625 14.7890625 30.15625 13.7890625 32.15625 C11.2265625 32.78125 11.2265625 32.78125 8.7890625 33.15625 C9.1190625 33.48625 9.4490625 33.81625 9.7890625 34.15625 C9.9140625 36.65625 9.9140625 36.65625 9.7890625 39.15625 C9.4590625 39.48625 9.1290625 39.81625 8.7890625 40.15625 C9.7790625 40.81625 10.7690625 41.47625 11.7890625 42.15625 C8.1640625 48.03125 8.1640625 48.03125 4.7890625 49.15625 C2.1015625 48.71875 2.1015625 48.71875 -0.2109375 48.15625 C-0.5409375 50.46625 -0.8709375 52.77625 -1.2109375 55.15625 C-5.75124067 56.99399176 -8.45312625 57.08712611 -13.2109375 56.15625 C-15.48744495 56.5140114 -15.48744495 56.5140114 -17.2109375 57.15625 C-16.8809375 56.16625 -16.5509375 55.17625 -16.2109375 54.15625 C-16.9946875 54.506875 -17.7784375 54.8575 -18.5859375 55.21875 C-23.97021127 56.61123459 -29.32349163 56.8383105 -34.26953125 53.95703125 C-40.54935058 48.8116309 -44.76678851 42.15790512 -46.2109375 34.15625 C-46.5518234 28.49353367 -46.38658159 22.82239813 -46.2109375 17.15625 C-45.5509375 17.15625 -44.8909375 17.15625 -44.2109375 17.15625 C-44.0046875 16.33125 -43.7984375 15.50625 -43.5859375 14.65625 C-40.43407232 6.63332045 -34.99404611 0.88871561 -27.2109375 -2.84375 C-17.65626352 -5.87498429 -8.25235758 -6.04002342 0 0 Z " fill="#447ED2" transform="translate(264.2109375,223.84375)"/>
<path d="M0 0 C-1.28627711 1.17260611 -2.57919783 2.3379283 -3.875 3.5 C-4.59429687 4.1496875 -5.31359375 4.799375 -6.0546875 5.46875 C-8 7 -8 7 -10 7 C-10 7.66 -10 8.32 -10 9 C-10.66 9 -11.32 9 -12 9 C-12 9.66 -12 10.32 -12 11 C-15.30350614 14.11997802 -16.32409833 15 -21 15 C-21 21.6 -21 28.2 -21 35 C-19.02 35.495 -19.02 35.495 -17 36 C-17.66 36 -18.32 36 -19 36 C-19 39.3 -19 42.6 -19 46 C-19.66 46 -20.32 46 -21 46 C-21.33 46.99 -21.66 47.98 -22 49 C-23.51174495 50.08463485 -25.05849275 51.1210774 -26.625 52.125 C-30.11605024 54.58650621 -30.11605024 54.58650621 -31.37109375 58.45703125 C-31.08850275 60.72849051 -30.67852943 62.81582861 -30 65 C-36.88016529 63.01239669 -36.88016529 63.01239669 -39 60 C-39.6875 57.3125 -39.6875 57.3125 -40 55 C-41.11375 55.33 -42.2275 55.66 -43.375 56 C-51.46887129 57.99848674 -59.03238356 57.15549044 -67 55 C-66.9175 55.7425 -66.835 56.485 -66.75 57.25 C-67 60 -67 60 -68.875 62.3125 C-71 64 -71 64 -73 64 C-73 64.66 -73 65.32 -73 66 C-74.61457079 67.43581474 -76.29219075 68.80144783 -78 70.125 C-78.928125 70.84945312 -79.85625 71.57390625 -80.8125 72.3203125 C-81.534375 72.87460937 -82.25625 73.42890625 -83 74 C-83.66 73.67 -84.32 73.34 -85 73 C-84.875 71.125 -84.875 71.125 -84 69 C-80.9375 67.75 -80.9375 67.75 -78 67 C-77.67 65.35 -77.34 63.7 -77 62 C-76.21625 62.04125 -75.4325 62.0825 -74.625 62.125 C-71.83883881 62.28728734 -71.83883881 62.28728734 -70 60 C-70 59.01 -70 58.02 -70 57 C-70.99 57 -71.98 57 -73 57 C-73 56.34 -73 55.68 -73 55 C-75.97 55.495 -75.97 55.495 -79 56 C-79.33 54.02 -79.66 52.04 -80 50 C-81.485 49.505 -81.485 49.505 -83 49 C-83.103125 48.401875 -83.20625 47.80375 -83.3125 47.1875 C-84.40774268 43.70263694 -86.92177636 42.72380524 -90 41 C-93.12498166 40.6626154 -93.12498166 40.6626154 -95.1875 43 C-95.785625 43.66 -96.38375 44.32 -97 45 C-97.66 44.67 -98.32 44.34 -99 44 C-97.89902432 42.87187697 -96.79408444 41.74762189 -95.6875 40.625 C-95.07261719 39.99851562 -94.45773438 39.37203125 -93.82421875 38.7265625 C-91.16939028 36.21385547 -89.72782094 35 -86 35 C-85.67 34.01 -85.34 33.02 -85 32 C-84.34 32 -83.68 32 -83 32 C-82.67 33.98 -82.34 35.96 -82 38 C-82.66 37.67 -83.32 37.34 -84 37 C-83.70019012 42.99619752 -80.93058798 46.70863341 -77 51 C-74.08119793 53.15435391 -71.56112032 54.34053327 -68 55 C-68.33 54.01 -68.66 53.02 -69 52 C-67.700625 52.020625 -66.40125 52.04125 -65.0625 52.0625 C-63.70834367 52.08399454 -62.35243917 52.07148199 -61 52 C-60.67 51.67 -60.34 51.34 -60 51 C-58.33382885 50.95936168 -56.66611905 50.957279 -55 51 C-55 51.66 -55 52.32 -55 53 C-54.01 53.495 -54.01 53.495 -53 54 C-52.505 53.01 -52.505 53.01 -52 52 C-51.071875 52.165 -50.14375 52.33 -49.1875 52.5 C-46.04378647 53.07748388 -46.04378647 53.07748388 -43 53 C-42.505 52.01 -42.505 52.01 -42 51 C-41.01 51.495 -41.01 51.495 -40 52 C-39.67 49.69 -39.34 47.38 -39 45 C-37.9275 45.12375 -36.855 45.2475 -35.75 45.375 C-34.5125 45.25125 -33.275 45.1275 -32 45 C-29.50459629 42.13384514 -29.50459629 42.13384514 -28 39 C-29.485 38.01 -29.485 38.01 -31 37 C-30.01 34.03 -30.01 34.03 -29 31 C-29.66 30.67 -30.32 30.34 -31 30 C-30 29 -30 29 -27.4375 28.9375 C-26.2309375 28.9684375 -26.2309375 28.9684375 -25 29 C-25 26.36 -25 23.72 -25 21 C-24.34 21 -23.68 21 -23 21 C-23.495 16.545 -23.495 16.545 -24 12 C-23.01 12.495 -23.01 12.495 -22 13 C-22.55105909 9.0507432 -23.38935371 5.65079826 -25 2 C-24.37351562 2.34933594 -23.74703125 2.69867188 -23.1015625 3.05859375 C-22.28429687 3.51363281 -21.46703125 3.96867188 -20.625 4.4375 C-19.81289063 4.88996094 -19.00078125 5.34242188 -18.1640625 5.80859375 C-16.79003378 6.5650536 -15.40290739 7.29854631 -14 8 C-13.401875 7.236875 -12.80375 6.47375 -12.1875 5.6875 C-5.37190083 -2.68595041 -5.37190083 -2.68595041 0 0 Z M-23 37 C-23.49306641 37.85271484 -23.49306641 37.85271484 -23.99609375 38.72265625 C-27.39735274 44.24394116 -30.96333828 47.92435996 -36.2421875 51.6875 C-36.82226562 52.120625 -37.40234375 52.55375 -38 53 C-38 53.33 -38 53.66 -38 54 C-33.71378503 54.18239213 -31.85963067 53.74786488 -28.56640625 50.8828125 C-23.19519432 45.25779779 -23.19519432 45.25779779 -21 38 C-21.66 37.67 -22.32 37.34 -23 37 Z " fill="#50DCEA" transform="translate(303,227)"/>
<path d="M0 0 C1.65 0.33 3.3 0.66 5 1 C1.63845832 8.19432751 -4.14467795 14.00958866 -11 18 C-11.99 18 -12.98 18 -14 18 C-14 18.66 -14 19.32 -14 20 C-29.76397359 29.00798491 -48.54418817 30.65126484 -66.0625 26.375 C-75.03634103 23.60019389 -83.38470757 19.49993342 -91 14 C-87.79937313 12.39968656 -85.27728194 13.96826309 -82 15 C-82 15.66 -82 16.32 -82 17 C-81.443125 17.12375 -80.88625 17.2475 -80.3125 17.375 C-77.77885636 18.05976855 -75.42078968 18.99133763 -73 20 C-73 20.66 -73 21.32 -73 22 C-68.05 22 -63.1 22 -58 22 C-58 22.66 -58 23.32 -58 24 C-54.27089934 24.0582462 -50.54191636 24.09367917 -46.8125 24.125 C-45.75740234 24.14175781 -44.70230469 24.15851563 -43.61523438 24.17578125 C-42.08286133 24.18544922 -42.08286133 24.18544922 -40.51953125 24.1953125 C-39.11344604 24.21102295 -39.11344604 24.21102295 -37.67895508 24.22705078 C-34.76496892 23.9800803 -32.67395862 23.14726818 -30 22 C-27.67402489 21.6186926 -25.34087842 21.27539746 -23 21 C-23.33 19.35 -23.66 17.7 -24 16 C-22.0636296 15.49564306 -20.12585854 14.99666126 -18.1875 14.5 C-17.10855469 14.2215625 -16.02960938 13.943125 -14.91796875 13.65625 C-12 13 -12 13 -9 13 C-8.34 11.02 -7.68 9.04 -7 7 C-6.01 7 -5.02 7 -4 7 C-3.71125 6.401875 -3.4225 5.80375 -3.125 5.1875 C-2 3 -2 3 0 0 Z " fill="#43C4E1" transform="translate(376,290)"/>
<path d="M0 0 C-1.28627711 1.17260611 -2.57919783 2.3379283 -3.875 3.5 C-4.59429687 4.1496875 -5.31359375 4.799375 -6.0546875 5.46875 C-8 7 -8 7 -10 7 C-10 7.66 -10 8.32 -10 9 C-10.66 9 -11.32 9 -12 9 C-12 9.66 -12 10.32 -12 11 C-15.30350614 14.11997802 -16.32409833 15 -21 15 C-21 21.6 -21 28.2 -21 35 C-19.68 35.33 -18.36 35.66 -17 36 C-17.66 36 -18.32 36 -19 36 C-19 39.3 -19 42.6 -19 46 C-19.66 46 -20.32 46 -21 46 C-21.33 46.99 -21.66 47.98 -22 49 C-23.51174495 50.08463485 -25.05849275 51.1210774 -26.625 52.125 C-30.11605024 54.58650621 -30.11605024 54.58650621 -31.37109375 58.45703125 C-31.08850275 60.72849051 -30.67852943 62.81582861 -30 65 C-33.77545388 63.90931332 -36.47043472 63.0916909 -39 60 C-38.67 59.01 -38.34 58.02 -38 57 C-36.65228516 56.36578125 -36.65228516 56.36578125 -35.27734375 55.71875 C-31.23517517 53.59889997 -29.23879122 51.10839265 -26.5625 47.5 C-25.87510742 46.62794922 -25.87510742 46.62794922 -25.17382812 45.73828125 C-23.70781419 43.86121868 -23.70781419 43.86121868 -22 41 C-22.33 40.01 -22.66 39.02 -23 38 C-23.5775 38.20625 -24.155 38.4125 -24.75 38.625 C-27.51967567 39.08661261 -28.64561267 38.42944945 -31 37 C-30.34 35.02 -29.68 33.04 -29 31 C-29.66 30.67 -30.32 30.34 -31 30 C-30 29 -30 29 -27.4375 28.9375 C-26.2309375 28.9684375 -26.2309375 28.9684375 -25 29 C-25 26.36 -25 23.72 -25 21 C-24.34 21 -23.68 21 -23 21 C-23.33 18.03 -23.66 15.06 -24 12 C-23.34 12.33 -22.68 12.66 -22 13 C-22.55105909 9.0507432 -23.38935371 5.65079826 -25 2 C-24.37351562 2.34933594 -23.74703125 2.69867188 -23.1015625 3.05859375 C-22.28429687 3.51363281 -21.46703125 3.96867188 -20.625 4.4375 C-19.81289063 4.88996094 -19.00078125 5.34242188 -18.1640625 5.80859375 C-16.79003378 6.5650536 -15.40290739 7.29854631 -14 8 C-13.401875 7.236875 -12.80375 6.47375 -12.1875 5.6875 C-5.37190083 -2.68595041 -5.37190083 -2.68595041 0 0 Z " fill="#43A6D1" transform="translate(303,227)"/>
<path d="M0 0 C2.8242331 0.97387348 3.91777643 1.87736826 5.59765625 4.3828125 C7.52403922 9.35170005 7.52863683 13.96379158 7.625 19.25 C7.675884 21.23447617 7.73038811 23.21886388 7.7890625 25.203125 C7.80662598 26.07614258 7.82418945 26.94916016 7.84228516 27.84863281 C7.86646383 30.05011308 7.86646383 30.05011308 9 32 C8.01 32.495 8.01 32.495 7 33 C6.67 33.99 6.34 34.98 6 36 C5.34 36 4.68 36 4 36 C3.81824219 36.84884766 3.81824219 36.84884766 3.6328125 37.71484375 C3.46523438 38.44832031 3.29765625 39.18179688 3.125 39.9375 C2.96257812 40.66839844 2.80015625 41.39929688 2.6328125 42.15234375 C2 44 2 44 0 45 C0 45.99 0 46.98 0 48 C-0.66 48 -1.32 48 -2 48 C-3.31266533 49.31266533 -4.60533913 50.64569507 -5.875 52 C-7.86449538 53.87246624 -9.51018484 54.93293636 -12 56 C-12.495 55.505 -12.495 55.505 -13 55 C-14.33563058 55.32400594 -15.66854645 55.65923568 -17 56 C-18.51395696 56.07818636 -20.03093507 56.10789909 -21.546875 56.09765625 C-22.39121094 56.09443359 -23.23554688 56.09121094 -24.10546875 56.08789062 C-25.41451172 56.07532227 -25.41451172 56.07532227 -26.75 56.0625 C-28.08224609 56.05573242 -28.08224609 56.05573242 -29.44140625 56.04882812 C-31.62767329 56.037074 -33.81380179 56.02064249 -36 56 C-36 55.67 -36 55.34 -36 55 C-35.10539062 54.97421875 -34.21078125 54.9484375 -33.2890625 54.921875 C-20.318906 54.31346681 -12.05299795 51.5273008 -3 42 C-2.505 41.01 -2.505 41.01 -2 40 C-1.34 40 -0.68 40 0 40 C0.48108275 38.58398286 0.95978141 37.16715563 1.4375 35.75 C1.70433594 34.96109375 1.97117187 34.1721875 2.24609375 33.359375 C5.36614148 23.59508056 5.36118357 13.15495344 0.875 3.85546875 C0 2 0 2 0 0 Z " fill="#7BD8EC" transform="translate(358,232)"/>
<path d="M0 0 C2.49952033 2.23603813 3.76418543 4.29478811 5.0625 7.375 C5.57103516 8.57769531 5.57103516 8.57769531 6.08984375 9.8046875 C6.39019531 10.52914062 6.69054687 11.25359375 7 12 C7.37125 12.825 7.7425 13.65 8.125 14.5 C14.27932712 32.08379177 12.26794771 51.8769432 4.33203125 68.4921875 C2.96113717 71.05162395 1.54456221 73.54250068 0 76 C-0.66 76 -1.32 76 -2 76 C-2.8125 74 -2.8125 74 -3 71 C-1.86959782 68.91377513 -0.55259968 67.01988989 0.79296875 65.06640625 C2.48619445 62.16764769 2.66338612 59.298816 3 56 C3.99 55.505 3.99 55.505 5 55 C5.65555119 52.47266765 5.65555119 52.47266765 6 50 C6.66 50 7.32 50 8 50 C8 41.42 8 32.84 8 24 C7.01 24.33 6.02 24.66 5 25 C5.32552083 22.98177083 5.65104167 20.96354167 5.9765625 18.9453125 C5.98429687 18.30335938 5.99203125 17.66140625 6 17 C5.34 16.34 4.68 15.68 4 15 C3.855625 13.88625 3.71125 12.7725 3.5625 11.625 C2.98639004 7.91229134 2.24199059 6.82685771 0 4 C0 2.68 0 1.36 0 0 Z " fill="#6BD8EA" transform="translate(383,215)"/>
<path d="M0 0 C3.39914975 1.13304992 4.05254451 2.12518475 6 5 C5.34 5.66 4.68 6.32 4 7 C3.01 6.67 2.02 6.34 1 6 C-1.14255793 6.38932856 -1.14255793 6.38932856 -3 7 C-3 7.7425 -3 8.485 -3 9.25 C-4.1814615 12.49901913 -4.82893498 12.74437906 -7.8125 14.25 C-10.50388751 15.48207984 -13.11282031 16.35119558 -16 17 C-16 17.99 -16 18.98 -16 20 C-17.6396875 20.2165625 -17.6396875 20.2165625 -19.3125 20.4375 C-22.93122987 20.88288104 -22.93122987 20.88288104 -26 22 C-27.62719482 22.08143855 -29.25751719 22.1075302 -30.88671875 22.09765625 C-31.82451172 22.09443359 -32.76230469 22.09121094 -33.72851562 22.08789062 C-34.70498047 22.07951172 -35.68144531 22.07113281 -36.6875 22.0625 C-37.67556641 22.05798828 -38.66363281 22.05347656 -39.68164062 22.04882812 C-42.12115474 22.03704303 -44.56054689 22.02059011 -47 22 C-47 21.67 -47 21.34 -47 21 C-46.03320312 20.97421875 -45.06640625 20.9484375 -44.0703125 20.921875 C-33.11063092 20.44442353 -25.0866885 18.36068195 -16 12 C-15.34 12 -14.68 12 -14 12 C-14 11.34 -14 10.68 -14 10 C-11.5834233 7.79055845 -9.49824618 6.19443753 -6.4375 5 C-3.58525691 3.82984899 -2.04511418 2.27234909 0 0 Z " fill="#437BC8" transform="translate(211,266)"/>
<path d="M0 0 C2.475 0.495 2.475 0.495 5 1 C1.63845832 8.19432751 -4.14467795 14.00958866 -11 18 C-11.99 18 -12.98 18 -14 18 C-14 18.66 -14 19.32 -14 20 C-25.47572816 26 -25.47572816 26 -32 26 C-32 25.34 -32 24.68 -32 24 C-29.03 23.01 -26.06 22.02 -23 21 C-23.33 19.35 -23.66 17.7 -24 16 C-22.0636296 15.49564306 -20.12585854 14.99666126 -18.1875 14.5 C-17.10855469 14.2215625 -16.02960938 13.943125 -14.91796875 13.65625 C-12 13 -12 13 -9 13 C-8.34 11.02 -7.68 9.04 -7 7 C-6.01 7 -5.02 7 -4 7 C-3.71125 6.401875 -3.4225 5.80375 -3.125 5.1875 C-2 3 -2 3 0 0 Z " fill="#39D8E9" transform="translate(376,290)"/>
<path d="M0 0 C-1 3 -1 3 -4 5 C-5.0064275 6.66279327 -6.00585407 8.32983484 -7 10 C-10.0365022 13.35062312 -13.52513365 16.11660026 -17 19 C-18.01680311 19.98290968 -19.02738219 20.97334787 -20 22 C-20.33 21.67 -20.66 21.34 -21 21 C-21.33 25.62 -21.66 30.24 -22 35 C-22.33 35 -22.66 35 -23 35 C-23 29.39 -23 23.78 -23 18 C-22.34 18 -21.68 18 -21 18 C-20.79375 17.175 -20.5875 16.35 -20.375 15.5 C-16.73521015 6.23508039 -10.54823166 -0.84385853 0 0 Z " fill="#907FDB" transform="translate(241,223)"/>
<path d="M0 0 C0.66 0 1.32 0 2 0 C2.33 1.98 2.66 3.96 3 6 C2.34 5.67 1.68 5.34 1 5 C1.29980988 10.99619752 4.06941202 14.70863341 8 19 C10.91880207 21.15435391 13.43887968 22.34053327 17 23 C16.67 22.01 16.34 21.02 16 20 C17.98 20.66 19.96 21.32 22 22 C20.68 22.33 19.36 22.66 18 23 C18.0825 23.7425 18.165 24.485 18.25 25.25 C18 28 18 28 16.125 30.3125 C14 32 14 32 12 32 C12 32.66 12 33.32 12 34 C10.38542921 35.43581474 8.70780925 36.80144783 7 38.125 C6.071875 38.84945312 5.14375 39.57390625 4.1875 40.3203125 C3.1046875 41.15175781 3.1046875 41.15175781 2 42 C1.34 41.67 0.68 41.34 0 41 C0.125 39.125 0.125 39.125 1 37 C4.0625 35.75 4.0625 35.75 7 35 C7.33 33.35 7.66 31.7 8 30 C8.78375 30.04125 9.5675 30.0825 10.375 30.125 C13.16116119 30.28728734 13.16116119 30.28728734 15 28 C15 27.01 15 26.02 15 25 C14.01 25 13.02 25 12 25 C12 24.34 12 23.68 12 23 C10.02 23.33 8.04 23.66 6 24 C5.67 22.02 5.34 20.04 5 18 C4.01 17.67 3.02 17.34 2 17 C1.896875 16.401875 1.79375 15.80375 1.6875 15.1875 C0.59225732 11.70263694 -1.92177636 10.72380524 -5 9 C-8.12498166 8.6626154 -8.12498166 8.6626154 -10.1875 11 C-10.785625 11.66 -11.38375 12.32 -12 13 C-12.66 12.67 -13.32 12.34 -14 12 C-12.89902432 10.87187697 -11.79408444 9.74762189 -10.6875 8.625 C-10.07261719 7.99851562 -9.45773438 7.37203125 -8.82421875 6.7265625 C-6.16939028 4.21385547 -4.72782094 3 -1 3 C-0.67 2.01 -0.34 1.02 0 0 Z " fill="#93BDE4" transform="translate(218,259)"/>
<path d="M0 0 C1.38541992 -0.02416992 1.38541992 -0.02416992 2.79882812 -0.04882812 C4.12237305 -0.04979492 4.12237305 -0.04979492 5.47265625 -0.05078125 C6.280979 -0.05376221 7.08930176 -0.05674316 7.92211914 -0.05981445 C8.58719482 0.06304932 9.25227051 0.18591309 9.9375 0.3125 C10.5975 1.3025 11.2575 2.2925 11.9375 3.3125 C15.50519552 4.04856499 15.50519552 4.04856499 18.9375 4.3125 C19.4325 6.2925 19.4325 6.2925 19.9375 8.3125 C18.31183394 7.83559796 16.68698689 7.35590334 15.0625 6.875 C14.15757812 6.60816406 13.25265625 6.34132812 12.3203125 6.06640625 C9.9375 5.3125 9.9375 5.3125 7.9375 4.3125 C-1.50288417 3.68724111 -9.70253338 3.39045224 -18.0625 8.3125 C-19.72444738 8.99084587 -21.38848903 9.66449575 -23.0625 10.3125 C-23.0625 8.6625 -23.0625 7.0125 -23.0625 5.3125 C-21.7425 4.9825 -20.4225 4.6525 -19.0625 4.3125 C-19.0625 3.6525 -19.0625 2.9925 -19.0625 2.3125 C-17.6703125 2.374375 -17.6703125 2.374375 -16.25 2.4375 C-10.72763646 2.22093672 -6.09309153 -0.0213493 0 0 Z " fill="#8180CD" transform="translate(172.0625,213.6875)"/>
<path d="M0 0 C0.99 0.33 1.98 0.66 3 1 C3 1.66 3 2.32 3 3 C4.98 3.66 6.96 4.32 9 5 C9 6.32 9 7.64 9 9 C9.66 9 10.32 9 11 9 C11.33 8.01 11.66 7.02 12 6 C13.32 6.33 14.64 6.66 16 7 C16.33 8.98 16.66 10.96 17 13 C17.99 13.33 18.98 13.66 20 14 C20 14.66 20 15.32 20 16 C20.66 16 21.32 16 22 16 C22 16.99 22 17.98 22 19 C21.01 19 20.02 19 19 19 C19 18.34 19 17.68 19 17 C18.18015625 16.88398438 18.18015625 16.88398438 17.34375 16.765625 C14.1341673 15.71716132 12.0924761 13.9009005 9.5 11.75 C8.5615625 10.98171875 7.623125 10.2134375 6.65625 9.421875 C4.1068713 7.09744148 1.99844337 4.80913266 0 2 C0 1.34 0 0.68 0 0 Z " fill="#4961CC" transform="translate(119,291)"/>
<path d="M0 0 C0 0.66 0 1.32 0 2 C-0.66 2 -1.32 2 -2 2 C-2 3.32 -2 4.64 -2 6 C-4 7.75 -4 7.75 -6 9 C-5.67 10.32 -5.34 11.64 -5 13 C-6.670625 13.4640625 -6.670625 13.4640625 -8.375 13.9375 C-11.7945155 14.82326483 -11.7945155 14.82326483 -14 16 C-14.33 15.01 -14.66 14.02 -15 13 C-16.32 13.99 -17.64 14.98 -19 16 C-17.46853407 12.24405842 -15.20051146 10.10719981 -12.1875 7.4375 C-11.33542969 6.67308594 -10.48335937 5.90867188 -9.60546875 5.12109375 C-3.31491713 0 -3.31491713 0 0 0 Z " fill="#7A52CF" transform="translate(140,194)"/>
<path d="M0 0 C-1.28627711 1.17260611 -2.57919783 2.3379283 -3.875 3.5 C-4.59429687 4.1496875 -5.31359375 4.799375 -6.0546875 5.46875 C-8 7 -8 7 -10 7 C-10 7.66 -10 8.32 -10 9 C-10.66 9 -11.32 9 -12 9 C-12 9.66 -12 10.32 -12 11 C-15 13 -15 13 -19 13 C-19.33 11.68 -19.66 10.36 -20 9 C-20.66 9 -21.32 9 -22 9 C-23.6875 6.625 -23.6875 6.625 -25 4 C-24.67 3.34 -24.34 2.68 -24 2 C-20.7 3.98 -17.4 5.96 -14 8 C-13.401875 7.236875 -12.80375 6.47375 -12.1875 5.6875 C-5.37190083 -2.68595041 -5.37190083 -2.68595041 0 0 Z " fill="#63A6D7" transform="translate(303,227)"/>
<path d="M0 0 C0.99 0.33 1.98 0.66 3 1 C3 1.99 3 2.98 3 4 C2.34 4 1.68 4 1 4 C-0.31266533 5.31266533 -1.60533913 6.64569507 -2.875 8 C-4.86449538 9.87246624 -6.51018484 10.93293636 -9 12 C-9.33 11.67 -9.66 11.34 -10 11 C-11.33563058 11.32400594 -12.66854645 11.65923568 -14 12 C-15.51395696 12.07818636 -17.03093507 12.10789909 -18.546875 12.09765625 C-19.39121094 12.09443359 -20.23554688 12.09121094 -21.10546875 12.08789062 C-21.97816406 12.07951172 -22.85085938 12.07113281 -23.75 12.0625 C-25.08224609 12.05573242 -25.08224609 12.05573242 -26.44140625 12.04882812 C-28.62767329 12.037074 -30.81380179 12.02064249 -33 12 C-33 11.67 -33 11.34 -33 11 C-32.10539062 10.97421875 -31.21078125 10.9484375 -30.2890625 10.921875 C-22.38644371 10.55117646 -16.0977648 9.49006115 -9 6 C-7.865625 5.484375 -6.73125 4.96875 -5.5625 4.4375 C-3.26417498 3.14819572 -1.70370453 1.98765529 0 0 Z " fill="#36C9E7" transform="translate(355,276)"/>
<path d="M0 0 C0.66 0 1.32 0 2 0 C2 1.32 2 2.64 2 4 C2.66386719 4.10957031 3.32773438 4.21914062 4.01171875 4.33203125 C8.90879478 5.21136023 12.90161428 5.99451714 17 9 C16.34 11.31 15.68 13.62 15 16 C11.56247993 14.4722133 8.81046312 12.49818944 6 10 C6 9.34 6 8.68 6 8 C5.34 8 4.68 8 4 8 C4 7.34 4 6.68 4 6 C2.68 5.34 1.36 4.68 0 4 C0 2.66666667 0 1.33333333 0 0 Z " fill="#5977C8" transform="translate(201,226)"/>
<path d="M0 0 C1.32 0.66 2.64 1.32 4 2 C3.67 2.66 3.34 3.32 3 4 C2.34 4 1.68 4 1 4 C1 4.66 1 5.32 1 6 C1.99 6 2.98 6 4 6 C2.55802132 8.88395737 0.29355765 10.76525152 -2 13 C-1.67 13.66 -1.34 14.32 -1 15 C-3.92879371 14.37240135 -6.36095629 13.41377341 -9 12 C-8.875 9.1875 -8.875 9.1875 -8 6 C-5.27542515 4.26090967 -3.27517534 3 0 3 C0 2.01 0 1.02 0 0 Z " fill="#4080D2" transform="translate(276,208)"/>
<path d="M0 0 C-0.93354328 8.63527533 -4.44981849 16.68720829 -9 24 C-9.66 24 -10.32 24 -11 24 C-11.8125 22 -11.8125 22 -12 19 C-10.8673627 16.90965009 -9.54730445 15.01218181 -8.19921875 13.0546875 C-6.51885088 10.17562072 -6.44020645 7.27010505 -6 4 C-2.82051282 0 -2.82051282 0 0 0 Z " fill="#39D4EA" transform="translate(392,267)"/>
<path d="M0 0 C3.3 0 6.6 0 10 0 C10.33 0.99 10.66 1.98 11 3 C11.99 2.67 12.98 2.34 14 2 C14.99 2 15.98 2 17 2 C18.33333333 3.33333333 19.66666667 4.66666667 21 6 C23.42597951 6.27787668 23.42597951 6.27787668 26.2265625 6.1953125 C27.2578125 6.18886719 28.2890625 6.18242187 29.3515625 6.17578125 C30.43179688 6.15902344 31.51203125 6.14226562 32.625 6.125 C34.25695312 6.11146484 34.25695312 6.11146484 35.921875 6.09765625 C38.61480152 6.07403409 41.30729255 6.04109556 44 6 C39.72942121 8.84705253 36.02543447 8.34201032 31 8.3125 C29.57349121 8.30621582 29.57349121 8.30621582 28.11816406 8.29980469 C17.69415608 8.13207844 9.32815812 5.53740037 0 1 C0 0.67 0 0.34 0 0 Z " fill="#8CB1E0" transform="translate(141,310)"/>
<path d="M0 0 C1.134375 0.020625 2.26875 0.04125 3.4375 0.0625 C2.4375 3.0625 2.4375 3.0625 -0.5625 5.0625 C-1.5689275 6.72529327 -2.56835407 8.39233484 -3.5625 10.0625 C-5.625 12.375 -5.625 12.375 -7.5625 14.0625 C-8.2225 14.0625 -8.8825 14.0625 -9.5625 14.0625 C-9.376875 13.485 -9.19125 12.9075 -9 12.3125 C-8.35850014 10.07886271 -8.35850014 10.07886271 -9.3125 8.125 C-9.395 7.444375 -9.4775 6.76375 -9.5625 6.0625 C-7.1875 3.375 -7.1875 3.375 -4.5625 1.0625 C-3.5625 0.0625 -3.5625 0.0625 0 0 Z " fill="#6734C6" transform="translate(237.5625,222.9375)"/>
<path d="M0 0 C0.66 0.33 1.32 0.66 2 1 C1.67 2.32 1.34 3.64 1 5 C0.34 5 -0.32 5 -1 5 C-1.598125 5.639375 -2.19625 6.27875 -2.8125 6.9375 C-5.26700181 9.25174456 -6.70523261 9.63391473 -10 10 C-10.33 11.98 -10.66 13.96 -11 16 C-9.7934375 16.433125 -9.7934375 16.433125 -8.5625 16.875 C-6 18 -6 18 -5 20 C-6.98 19.34 -8.96 18.68 -11 18 C-11.33 19.32 -11.66 20.64 -12 22 C-14.62901288 20.47793991 -16.84365964 19.15634036 -19 17 C-17.35 16.34 -15.7 15.68 -14 15 C-14 14.01 -14 13.02 -14 12 C-13.34 12 -12.68 12 -12 12 C-11.7525 11.401875 -11.505 10.80375 -11.25 10.1875 C-9.81927475 7.68373081 -8.4308418 6.51927612 -6 5 C-5.34 5 -4.68 5 -4 5 C-4 4.34 -4 3.68 -4 3 C-2 1.375 -2 1.375 0 0 Z " fill="#81AFD9" transform="translate(278,204)"/>
<path d="M0 0 C1.21236328 0.01353516 1.21236328 0.01353516 2.44921875 0.02734375 C3.37154297 0.04474609 3.37154297 0.04474609 4.3125 0.0625 C3.3125 2.0625 3.3125 2.0625 0.875 3.125 C-6.8786343 5.16543008 -14.7120749 5.17694722 -22.6875 5.25 C-23.53723389 5.26305176 -24.38696777 5.27610352 -25.26245117 5.28955078 C-26.06271729 5.29067871 -26.8629834 5.29180664 -27.6875 5.29296875 C-28.409375 5.29707764 -29.13125 5.30118652 -29.875 5.30541992 C-31.6875 5.0625 -31.6875 5.0625 -33.6875 3.0625 C-28.65754453 1.80501113 -23.70634776 2.0068017 -18.5703125 2.1015625 C-12.09133463 2.17490942 -6.33687225 -0.09183873 0 0 Z " fill="#4A7DBE" transform="translate(193.6875,311.9375)"/>
<path d="M0 0 C0.91007812 -0.01224609 1.82015625 -0.02449219 2.7578125 -0.03710938 C3.62664062 -0.03904297 4.49546875 -0.04097656 5.390625 -0.04296875 C6.17985352 -0.04707764 6.96908203 -0.05118652 7.78222656 -0.05541992 C9.75 0.1875 9.75 0.1875 11.75 2.1875 C9.11 2.8475 6.47 3.5075 3.75 4.1875 C3.42 3.5275 3.09 2.8675 2.75 2.1875 C2.09 2.8475 1.43 3.5075 0.75 4.1875 C0.75 3.5275 0.75 2.8675 0.75 2.1875 C-0.9 2.8475 -2.55 3.5075 -4.25 4.1875 C-4.25 3.5275 -4.25 2.8675 -4.25 2.1875 C-5.9 2.1875 -7.55 2.1875 -9.25 2.1875 C-9.25 2.8475 -9.25 3.5075 -9.25 4.1875 C-12.72823115 5.34691038 -14.70895578 4.89570884 -18.25 4.1875 C-16.25 1.1875 -16.25 1.1875 -13.765625 0.51171875 C-9.16815743 0.08773007 -4.61489582 0.00332485 0 0 Z " fill="#5835C1" transform="translate(171.25,186.8125)"/>
<path d="M0 0 C0 0.66 0 1.32 0 2 C0.66 2.33 1.32 2.66 2 3 C2.33 2.34 2.66 1.68 3 1 C4.3303125 1.2475 4.3303125 1.2475 5.6875 1.5 C8.53596892 1.92995757 11.13004802 2.08441035 14 2 C13.01 2.33 12.02 2.66 11 3 C11 3.66 11 4.32 11 5 C3.17029546 7.2267967 -3.66467626 6.26014388 -11 3 C-11 2.67 -11 2.34 -11 2 C-7.17679443 0.57741188 -4.08718695 -0.24042276 0 0 Z " fill="#68CDE7" transform="translate(248,278)"/>
<path d="M0 0 C0 0.66 0 1.32 0 2 C-1.65 2.33 -3.3 2.66 -5 3 C-5.06574219 3.77730469 -5.13148438 4.55460937 -5.19921875 5.35546875 C-6 8 -6 8 -8.14453125 9.36328125 C-9.02496094 9.67652344 -9.90539062 9.98976563 -10.8125 10.3125 C-11.68519531 10.63863281 -12.55789063 10.96476562 -13.45703125 11.30078125 C-16 12 -16 12 -20 12 C-20 11.34 -20 10.68 -20 10 C-17.03 9.01 -14.06 8.02 -11 7 C-11.33 5.35 -11.66 3.7 -12 2 C-10.7625 1.67 -9.525 1.34 -8.25 1 C-7.55390625 0.814375 -6.8578125 0.62875 -6.140625 0.4375 C-4 0 -4 0 0 0 Z " fill="#2CD8EC" transform="translate(364,304)"/>
<path d="M0 0 C0 2.64 0 5.28 0 8 C-0.99 8.33 -1.98 8.66 -3 9 C-3 10.65 -3 12.3 -3 14 C-2.01 14.33 -1.02 14.66 0 15 C0.125 20.75 0.125 20.75 -1 23 C-1.66 23 -2.32 23 -3 23 C-5.09659157 18.69865935 -5.26862339 15.06612125 -5.25 10.3125 C-5.25773438 9.63638672 -5.26546875 8.96027344 -5.2734375 8.26367188 C-5.2534965 3.2534965 -5.2534965 3.2534965 -3 1 C-1 0 -1 0 0 0 Z " fill="#5053B1" transform="translate(224,241)"/>
<path d="M0 0 C-2 3 -2 3 -5 5 C-6.21284876 8.05429073 -6.21284876 8.05429073 -7 11 C-9.97 10.67 -12.94 10.34 -16 10 C-12.14641652 3.47855104 -8.1364503 -0.77490003 0 0 Z " fill="#5F91CB" transform="translate(294,197)"/>
<path d="M0 0 C0.66 0 1.32 0 2 0 C2.054138 2.24973447 2.09285491 4.49984383 2.125 6.75 C2.14820313 8.00296875 2.17140625 9.2559375 2.1953125 10.546875 C2.01537302 13.72820492 1.68998582 15.36521896 0 18 C-1.98 17.67 -3.96 17.34 -6 17 C-5.34 14.69 -4.68 12.38 -4 10 C-4.66 9.67 -5.32 9.34 -6 9 C-5 8 -5 8 -2.4375 7.9375 C-1.2309375 7.9684375 -1.2309375 7.9684375 0 8 C0 5.36 0 2.72 0 0 Z " fill="#33BFE4" transform="translate(278,248)"/>
<path d="M0 0 C0.61875 0.680625 1.2375 1.36125 1.875 2.0625 C7.1733779 7.34578281 13.64120227 12.25712685 21 14 C15.66353134 15.77882289 11.04741524 15.44723163 6 13 C6 12.01 6 11.02 6 10 C5.34 9.67 4.68 9.34 4 9 C4 8.34 4 7.68 4 7 C3.01 6.67 2.02 6.34 1 6 C0.67 4.02 0.34 2.04 0 0 Z " fill="#7690D3" transform="translate(142,272)"/>
<path d="M0 0 C1.98 0.66 3.96 1.32 6 2 C4.68 2.33 3.36 2.66 2 3 C2.12375 4.11375 2.12375 4.11375 2.25 5.25 C2 8 2 8 0.125 10.3125 C-2 12 -2 12 -4 12 C-4 12.66 -4 13.32 -4 14 C-5.61457079 15.43581474 -7.29219075 16.80144783 -9 18.125 C-9.928125 18.84945313 -10.85625 19.57390625 -11.8125 20.3203125 C-12.534375 20.87460937 -13.25625 21.42890625 -14 22 C-14.66 21.67 -15.32 21.34 -16 21 C-15.875 19.125 -15.875 19.125 -15 17 C-11.9375 15.75 -11.9375 15.75 -9 15 C-8.67 13.35 -8.34 11.7 -8 10 C-7.21625 10.04125 -6.4325 10.0825 -5.625 10.125 C-2.83883881 10.28728734 -2.83883881 10.28728734 -1 8 C-1 7.01 -1 6.02 -1 5 C-1.66 4.34 -2.32 3.68 -3 3 C-1.68 3 -0.36 3 1 3 C0.67 2.01 0.34 1.02 0 0 Z " fill="#86BDE1" transform="translate(234,279)"/>
<path d="M0 0 C0.66 0 1.32 0 2 0 C2.66 0.99 3.32 1.98 4 3 C6.10737605 3.3264335 6.10737605 3.3264335 8.4375 3.125 C11.4596488 2.97563515 13.06515164 3.02171721 16 4 C15.67 5.32 15.34 6.64 15 8 C16.32 8.33 17.64 8.66 19 9 C18 10 18 10 15.9609375 10.08984375 C10.01803623 9.73973325 6.64081133 8.65657156 2.27734375 4.5703125 C1 3 1 3 0 0 Z " fill="#46A4D6" transform="translate(224,270)"/>
<path d="M0 0 C3.27066566 -0.08706892 6.54103365 -0.14041241 9.8125 -0.1875 C10.74126953 -0.21263672 11.67003906 -0.23777344 12.62695312 -0.26367188 C13.9659668 -0.27817383 13.9659668 -0.27817383 15.33203125 -0.29296875 C16.56530151 -0.31653442 16.56530151 -0.31653442 17.82348633 -0.34057617 C20.5241707 0.0820211 21.20102484 1.01286436 23 3 C24.11375 3.45375 25.2275 3.9075 26.375 4.375 C30.17065996 6.07650274 32.25503178 7.92230836 35 11 C34.34 11.66 33.68 12.32 33 13 C32.071875 12.113125 31.14375 11.22625 30.1875 10.3125 C20.93059413 2.51526591 11.69572996 1.17362082 0 1 C0 0.67 0 0.34 0 0 Z " fill="#A1D8EE" transform="translate(322,216)"/>
<path d="M0 0 C0.268125 0.639375 0.53625 1.27875 0.8125 1.9375 C1.88667752 4.33131686 1.88667752 4.33131686 5 5 C3.35 5.33 1.7 5.66 0 6 C0 12.6 0 19.2 0 26 C1.32 26.33 2.64 26.66 4 27 C3.34 27 2.68 27 2 27 C1.67 28.65 1.34 30.3 1 32 C-1.2477975 29.94766315 -2.0022242 28.99332739 -3 26 C-2.67 25.34 -2.34 24.68 -2 24 C-1.90138019 21.19803709 -1.86103924 18.42645953 -1.875 15.625 C-1.87113281 14.85671875 -1.86726563 14.0884375 -1.86328125 13.296875 C-1.86521484 12.17925781 -1.86521484 12.17925781 -1.8671875 11.0390625 C-1.86831543 10.36053223 -1.86944336 9.68200195 -1.87060547 8.98291016 C-2.00733166 6.88764583 -2.43229045 5.01770852 -3 3 C-2.01 3.495 -2.01 3.495 -1 4 C-0.67 2.68 -0.34 1.36 0 0 Z " fill="#B2EEFA" transform="translate(282,236)"/>
<path d="M0 0 C1.80078125 1.546875 1.80078125 1.546875 3 3 C-1.75 4.125 -1.75 4.125 -4 3 C-5.6396875 3.2475 -5.6396875 3.2475 -7.3125 3.5 C-10.66919311 3.95514483 -12.78134286 3.87781558 -16 3 C-16 2.01 -16 1.02 -16 0 C-10.69550434 -1.25632792 -5.30504305 -1.27832363 0 0 Z " fill="#7264C9" transform="translate(258,220)"/>
<path d="M0 0 C4.455 0.99 4.455 0.99 9 2 C9 2.66 9 3.32 9 4 C9.556875 4.12375 10.11375 4.2475 10.6875 4.375 C13.22114364 5.05976855 15.57921032 5.99133763 18 7 C18 7.66 18 8.32 18 9 C18.99 9.33 19.98 9.66 21 10 C18 11 18 11 15.29296875 9.92578125 C4.25648022 4.19236016 4.25648022 4.19236016 0 1 C0 0.67 0 0.34 0 0 Z " fill="#85D7EB" transform="translate(285,303)"/>
<path d="M0 0 C3.48230748 3.48230748 4.11340013 7.52226554 4.1953125 12.3046875 C4.18217835 13.82824867 4.15856309 15.35175194 4.125 16.875 C4.11597656 17.65875 4.10695313 18.4425 4.09765625 19.25 C4.07428063 21.16680055 4.03841653 23.08344191 4 25 C3.67 25 3.34 25 3 25 C2.67 19.39 2.34 13.78 2 8 C1.34 8 0.68 8 0 8 C-0.66 7.34 -1.32 6.68 -2 6 C-2.66 5.67 -3.32 5.34 -4 5 C-3.6875 3.0625 -3.6875 3.0625 -3 1 C-2.01 0.67 -1.02 0.34 0 0 Z " fill="#4FA5D5" transform="translate(277,235)"/>
<path d="M0 0 C0.99 0.33 1.98 0.66 3 1 C2.34 1 1.68 1 1 1 C1 1.99 1 2.98 1 4 C-8.41002278 8.22323462 -8.41002278 8.22323462 -13 10 C-13 8.35 -13 6.7 -13 5 C-11.68 4.67 -10.36 4.34 -9 4 C-9 3.34 -9 2.68 -9 2 C-7.6078125 2.061875 -7.6078125 2.061875 -6.1875 2.125 C-2.84190281 2.27136339 -2.84190281 2.27136339 0 0 Z " fill="#7F76CD" transform="translate(162,214)"/>
<path d="M0 0 C1.34674805 -0.01836914 1.34674805 -0.01836914 2.72070312 -0.03710938 C3.58759766 -0.03904297 4.45449219 -0.04097656 5.34765625 -0.04296875 C6.13277588 -0.04707764 6.91789551 -0.05118652 7.72680664 -0.05541992 C9.9375 0.1875 9.9375 0.1875 13.9375 2.1875 C8.9875 2.1875 4.0375 2.1875 -1.0625 2.1875 C-1.3925 2.8475 -1.7225 3.5075 -2.0625 4.1875 C-2.0625 3.5275 -2.0625 2.8675 -2.0625 2.1875 C-6.3525 2.1875 -10.6425 2.1875 -15.0625 2.1875 C-15.0625 1.8575 -15.0625 1.5275 -15.0625 1.1875 C-10.07961825 -0.11283449 -5.11154042 0.00368532 0 0 Z " fill="#488FC6" transform="translate(330.0625,186.8125)"/>
<path d="M0 0 C1.13050781 0.00322266 2.26101562 0.00644531 3.42578125 0.00976562 C4.52535156 -0.00634766 5.62492187 -0.02246094 6.7578125 -0.0390625 C13.81761816 -0.04324981 19.80384367 0.85305273 26.42578125 3.32226562 C26.42578125 3.65226563 26.42578125 3.98226562 26.42578125 4.32226562 C20.05490525 4.57710066 20.05490525 4.57710066 16.95703125 3.32226562 C11.67370587 1.82610269 6.51096592 2.11365856 1.05078125 2.19726562 C-0.62564453 2.21080078 -0.62564453 2.21080078 -2.3359375 2.22460938 C-5.08225337 2.24808216 -7.82812347 2.28091835 -10.57421875 2.32226562 C-7.47533045 -0.77662268 -4.23446717 0.0278917 0 0 Z " fill="#AFA8E5" transform="translate(167.57421875,185.677734375)"/>
<path d="M0 0 C2.27113803 0.14100857 4.54190725 0.28796755 6.8125 0.4375 C8.07707031 0.51871094 9.34164063 0.59992188 10.64453125 0.68359375 C14 1 14 1 17 2 C18.55421729 2.08106686 20.11167027 2.10756898 21.66796875 2.09765625 C22.56064453 2.09443359 23.45332031 2.09121094 24.37304688 2.08789062 C25.30181641 2.07951172 26.23058594 2.07113281 27.1875 2.0625 C28.12787109 2.05798828 29.06824219 2.05347656 30.03710938 2.04882812 C32.35813712 2.03704626 34.67903644 2.02059558 37 2 C32.39377932 4.63559238 28.19185383 4.34159875 23 4.3125 C22.06260986 4.31121094 21.12521973 4.30992187 20.15942383 4.30859375 C13.04874041 4.21035445 6.75058066 3.34802805 0 1 C0 0.67 0 0.34 0 0 Z " fill="#9AE9F5" transform="translate(306,314)"/>
<path d="M0 0 C-1.28627711 1.17260611 -2.57919783 2.3379283 -3.875 3.5 C-4.59429687 4.1496875 -5.31359375 4.799375 -6.0546875 5.46875 C-8 7 -8 7 -10 7 C-10 7.66 -10 8.32 -10 9 C-10.66 9 -11.32 9 -12 9 C-12 9.66 -12 10.32 -12 11 C-12.66 11 -13.32 11 -14 11 C-13.49436343 7.25828935 -12.88706033 5.4428972 -10 3 C-9.319375 2.195625 -9.319375 2.195625 -8.625 1.375 C-5.94483939 -0.89282821 -3.16916828 -1.58458414 0 0 Z " fill="#68ACDB" transform="translate(303,227)"/>
<path d="M0 0 C0.66 0.33 1.32 0.66 2 1 C1.34 2.32 0.68 3.64 0 5 C0.66 5.33 1.32 5.66 2 6 C0.68 8.31 -0.64 10.62 -2 13 C-2.66 13 -3.32 13 -4 13 C-5.375 11 -5.375 11 -6 8 C-4.32355244 5.05533074 -2.23189726 2.54083219 0 0 Z " fill="#7F59D0" transform="translate(228,227)"/>
<path d="M0 0 C0.66 0 1.32 0 2 0 C2.33 2.64 2.66 5.28 3 8 C1.35 8.33 -0.3 8.66 -2 9 C-2.66 10.98 -3.32 12.96 -4 15 C-4.33 15 -4.66 15 -5 15 C-5.56102731 9.38972689 -3.79491313 5.70308675 -1 1 C-0.67 0.67 -0.34 0.34 0 0 Z " fill="#552EBF" transform="translate(117,216)"/>
<path d="M0 0 C0.33 0 0.66 0 1 0 C1.98743109 7.00316511 2.45650882 14.02142295 1 21 C0.34 21.33 -0.32 21.66 -1 22 C-1.0270817 19.27076612 -1.04687847 16.54180363 -1.0625 13.8125 C-1.07087891 13.04357422 -1.07925781 12.27464844 -1.08789062 11.48242188 C-1.10491934 7.51473211 -0.98604115 3.87428766 0 0 Z " fill="#503EB2" transform="translate(108,239)"/>
<path d="M0 0 C0.33 0 0.66 0 1 0 C1 2.31 1 4.62 1 7 C0.34 7 -0.32 7 -1 7 C-1.33 7.99 -1.66 8.98 -2 10 C-2.99 10 -3.98 10 -5 10 C-7.18777466 11.9375006 -7.18777466 11.9375006 -9 14 C-9.66 13.67 -10.32 13.34 -11 13 C-10.43410156 12.37351562 -9.86820312 11.74703125 -9.28515625 11.1015625 C-8.18494141 9.87566406 -8.18494141 9.87566406 -7.0625 8.625 C-6.33160156 7.81289063 -5.60070312 7.00078125 -4.84765625 6.1640625 C-2.97010529 4.14075833 -2.97010529 4.14075833 -2 2 C-1.34 2 -0.68 2 0 2 C0 1.34 0 0.68 0 0 Z " fill="#7FC9E6" transform="translate(283,266)"/>
<path d="M0 0 C2.49952033 2.23603813 3.76418543 4.29478811 5.0625 7.375 C5.39894531 8.17164063 5.73539062 8.96828125 6.08203125 9.7890625 C6.38496094 10.51867187 6.68789063 11.24828125 7 12 C7.4125 12.9075 7.825 13.815 8.25 14.75 C9.09325275 17.27975825 9.15138947 19.35068428 9 22 C8.5978125 21.1028125 8.5978125 21.1028125 8.1875 20.1875 C7.15538559 17.96792308 7.15538559 17.96792308 5.4375 16.6875 C3.25642436 14.12710686 3.45986454 11.27653488 3 8 C2.03126968 6.64377755 1.03565785 5.30582947 0 4 C0 2.68 0 1.36 0 0 Z " fill="#A7E4F2" transform="translate(383,215)"/>
<path d="M0 0 C1.32 0.66 2.64 1.32 4 2 C1.73595458 3.36680153 -0.53501021 4.71844445 -2.8125 6.0625 C-3.45509766 6.45244141 -4.09769531 6.84238281 -4.75976562 7.24414062 C-6.4628915 8.24130759 -8.22945858 9.12812687 -10 10 C-10.99 9.67 -11.98 9.34 -13 9 C-11.68 8.67 -10.36 8.34 -9 8 C-9 6.68 -9 5.36 -9 4 C-4.545 3.505 -4.545 3.505 0 3 C0 2.01 0 1.02 0 0 Z " fill="#8ABCE2" transform="translate(211,302)"/>
<path d="M0 0 C0.66 0.33 1.32 0.66 2 1 C1.67 1.99 1.34 2.98 1 4 C-1.94131891 4.98043964 -3.82501665 5.11621202 -6.88671875 5.09765625 C-7.82451172 5.09443359 -8.76230469 5.09121094 -9.72851562 5.08789062 C-10.70498047 5.07951172 -11.68144531 5.07113281 -12.6875 5.0625 C-14.16959961 5.05573242 -14.16959961 5.05573242 -15.68164062 5.04882812 C-18.12115474 5.03704303 -20.56054689 5.02059011 -23 5 C-23 4.67 -23 4.34 -23 4 C-22.01 3.96261719 -21.02 3.92523438 -20 3.88671875 C-12.81171148 3.55009468 -6.6744335 2.87916739 0 0 Z " fill="#94B7E2" transform="translate(187,283)"/>
<path d="M0 0 C0.33 0.66 0.66 1.32 1 2 C2.65 1.67 4.3 1.34 6 1 C6 1.99 6 2.98 6 4 C2.49461443 5.96301592 -1.13351728 6.95902388 -5 8 C-3.8141763 4.62496331 -2.72426311 2.35277269 0 0 Z " fill="#5A29CB" transform="translate(120,210)"/>
<path d="M0 0 C1 3 1 3 -0.21484375 5.69921875 C-0.78332031 6.68535156 -1.35179687 7.67148437 -1.9375 8.6875 C-2.50339844 9.68136719 -3.06929688 10.67523438 -3.65234375 11.69921875 C-4.31943359 12.83810547 -4.31943359 12.83810547 -5 14 C-5.66 14 -6.32 14 -7 14 C-7.75 11.875 -7.75 11.875 -8 9 C-6.0625 5.6875 -6.0625 5.6875 -4 3 C-3.34 3.33 -2.68 3.66 -2 4 C-1.34 2.68 -0.68 1.36 0 0 Z " fill="#79E7F2" transform="translate(388,277)"/>
<path d="M0 0 C2.19838974 2.19838974 4.39068739 4.40021635 6.5625 6.625 C8.95845617 9.10473501 8.95845617 9.10473501 12 11 C11.67 11.99 11.34 12.98 11 14 C11 13.34 11 12.68 11 12 C9.02 12.33 7.04 12.66 5 13 C4.67 11.02 4.34 9.04 4 7 C3.01 6.67 2.02 6.34 1 6 C0.67 4.02 0.34 2.04 0 0 Z " fill="#81B7DE" transform="translate(219,270)"/>
<path d="M0 0 C2.0625 0.4375 2.0625 0.4375 4 1 C3.67 1.66 3.34 2.32 3 3 C2.64386903 4.66194453 2.30791692 6.328451 2 8 C-1.40320742 6.98823563 -2.75725331 6.35156418 -4.8125 3.375 C-5.204375 2.59125 -5.59625 1.8075 -6 1 C-4.7934375 1.0309375 -4.7934375 1.0309375 -3.5625 1.0625 C-1.06645115 1.29633621 -1.06645115 1.29633621 0 0 Z " fill="#418ACF" transform="translate(282,224)"/>
<path d="M0 0 C2.475 0.99 2.475 0.99 5 2 C5 2.66 5 3.32 5 4 C5.5775 4.268125 6.155 4.53625 6.75 4.8125 C9.05550043 6.02929189 11.02056192 7.30333879 13 9 C13 9.66 13 10.32 13 11 C12.01 11 11.02 11 10 11 C9.34 10.34 8.68 9.68 8 9 C7.01 9 6.02 9 5 9 C4.67 7.68 4.34 6.36 4 5 C3.34 5 2.68 5 2 5 C1.34 3.35 0.68 1.7 0 0 Z " fill="#89A3D8" transform="translate(221,205)"/>
<path d="M0 0 C0 0.66 0 1.32 0 2 C-0.66 2 -1.32 2 -2 2 C-2 3.32 -2 4.64 -2 6 C-3.875 7.625 -3.875 7.625 -6 9 C-6.66 9.66 -7.32 10.32 -8 11 C-8.66 9.35 -9.32 7.7 -10 6 C-8.71283353 4.99421411 -7.42011342 3.99553202 -6.125 3 C-5.40570313 2.443125 -4.68640625 1.88625 -3.9453125 1.3125 C-2 0 -2 0 0 0 Z " fill="#886BD4" transform="translate(140,194)"/>
<path d="M0 0 C1.98 0 3.96 0 6 0 C6 0.66 6 1.32 6 2 C6.66 2 7.32 2 8 2 C7.67 3.65 7.34 5.3 7 7 C6.01 7 5.02 7 4 7 C3.67 6.01 3.34 5.02 3 4 C2.34 4 1.68 4 1 4 C0.67 2.68 0.34 1.36 0 0 Z " fill="#477BC6" transform="translate(223,266)"/>
<path d="M0 0 C3.99455527 0.61454696 6.74466336 2.70646737 10 5 C9.67 5.66 9.34 6.32 9 7 C7.68 6.34 6.36 5.68 5 5 C4.67 5.66 4.34 6.32 4 7 C2.68 6.67 1.36 6.34 0 6 C0 4.02 0 2.04 0 0 Z " fill="#3AA3D7" transform="translate(284,266)"/>
<path d="M0 0 C0 0.66 0 1.32 0 2 C-0.99 2 -1.98 2 -3 2 C-3 2.66 -3 3.32 -3 4 C-5.34852528 5.17426264 -6.73774065 5.11508173 -9.3515625 5.09765625 C-10.20234375 5.09443359 -11.053125 5.09121094 -11.9296875 5.08789062 C-12.81914062 5.07951172 -13.70859375 5.07113281 -14.625 5.0625 C-15.5221875 5.05798828 -16.419375 5.05347656 -17.34375 5.04882812 C-19.56256648 5.03702591 -21.78125018 5.02056155 -24 5 C-24 4.67 -24 4.34 -24 4 C-22.62328125 3.94392578 -22.62328125 3.94392578 -21.21875 3.88671875 C-14.11815919 3.50632996 -6.59415149 0 0 0 Z " fill="#91E4F0" transform="translate(346,283)"/>
<path d="M0 0 C6.52307692 -0.36923077 6.52307692 -0.36923077 8.9375 1.5 C9.288125 1.995 9.63875 2.49 10 3 C8.68 3.33 7.36 3.66 6 4 C6 4.66 6 5.32 6 6 C4.35 5.67 2.7 5.34 1 5 C0.67 3.35 0.34 1.7 0 0 Z " fill="#543BCA" transform="translate(144,216)"/>
<path d="M0 0 C0.625 1.8125 0.625 1.8125 1 4 C0.01 5.485 0.01 5.485 -1 7 C-1.63078339 9.20841938 -1.63078339 9.20841938 -2.0625 11.5625 C-2.53490771 13.94015535 -2.91435164 15.82870329 -4 18 C-4.66 18 -5.32 18 -6 18 C-5.34722727 14.26695594 -4.31770588 10.86352357 -3 7.3125 C-2.649375 6.35988281 -2.29875 5.40726563 -1.9375 4.42578125 C-1 2 -1 2 0 0 Z " fill="#A897DC" transform="translate(114,218)"/>
<path d="M0 0 C2.6875 0.875 2.6875 0.875 5 2 C4.67 3.32 4.34 4.64 4 6 C2.02 6 0.04 6 -2 6 C-2.33 4.68 -2.66 3.36 -3 2 C-2.01 1.34 -1.02 0.68 0 0 Z " fill="#533EBE" transform="translate(139,224)"/>
<path d="M0 0 C2.95857409 -0.05379226 5.91617721 -0.09357093 8.875 -0.125 C9.71675781 -0.14175781 10.55851563 -0.15851563 11.42578125 -0.17578125 C12.23144531 -0.18222656 13.03710938 -0.18867188 13.8671875 -0.1953125 C14.98262939 -0.21102295 14.98262939 -0.21102295 16.12060547 -0.22705078 C18 0 18 0 20 2 C17.36 2.66 14.72 3.32 12 4 C11.67 3.34 11.34 2.68 11 2 C8.41394668 1.5316735 8.41394668 1.5316735 5.4375 1.375 C3.91962891 1.26285156 3.91962891 1.26285156 2.37109375 1.1484375 C1.19740234 1.07496094 1.19740234 1.07496094 0 1 C0 0.67 0 0.34 0 0 Z " fill="#523CB2" transform="translate(163,187)"/>
<path d="M0 0 C0.33 0.66 0.66 1.32 1 2 C0.34 2 -0.32 2 -1 2 C-1 2.66 -1 3.32 -1 4 C-7.27 4 -13.54 4 -20 4 C-20 3.67 -20 3.34 -20 3 C-18.89140625 2.95101563 -17.7828125 2.90203125 -16.640625 2.8515625 C-15.17705935 2.77650785 -13.71351888 2.70096119 -12.25 2.625 C-11.15558594 2.57859375 -11.15558594 2.57859375 -10.0390625 2.53125 C-6.26057344 2.3251506 -3.22053332 2.08487157 0 0 Z " fill="#36D1E9" transform="translate(345,312)"/>
<path d="M0 0 C-4.91427091 3.17982236 -9.09596234 5 -15 5 C-15 4.34 -15 3.68 -15 3 C-4.0625 -2.03125 -4.0625 -2.03125 0 0 Z " fill="#87E6F2" transform="translate(359,311)"/>
<path d="M0 0 C0.66 0.33 1.32 0.66 2 1 C1.67 1.33 1.34 1.66 1 2 C2.65 2 4.3 2 6 2 C3.64722731 4.72426311 1.37503669 5.8141763 -2 7 C-2.33 6.01 -2.66 5.02 -3 4 C-5.01508358 3.26676204 -5.01508358 3.26676204 -7 3 C-4.69631264 1.93347808 -2.35981813 0.93578995 0 0 Z " fill="#B0EEFA" transform="translate(266,278)"/>
<path d="M0 0 C0.66 0 1.32 0 2 0 C2 1.32 2 2.64 2 4 C1.34 4 0.68 4 0 4 C-0.12375 5.175625 -0.2475 6.35125 -0.375 7.5625 C-0.86435935 11.54120426 -1.8055205 15.17766559 -3 19 C-4.08753574 15.73739277 -3.90068342 14.83529729 -3.0625 11.625 C-2.40415166 8.94364748 -2 6.84242642 -2 4.0625 C-2 2 -2 2 0 0 Z " fill="#5143BA" transform="translate(138,231)"/>
<path d="M0 0 C0.7734375 0.433125 0.7734375 0.433125 1.5625 0.875 C4.62356725 2.28780027 7.74944918 3.1248517 11 4 C11 4.66 11 5.32 11 6 C11.66 6 12.32 6 13 6 C13 6.99 13 7.98 13 9 C12.01 9 11.02 9 10 9 C10 8.34 10 7.68 10 7 C9.46375 6.938125 8.9275 6.87625 8.375 6.8125 C4.86049298 5.61016865 2.74424626 3.49476933 0 1 C0 0.67 0 0.34 0 0 Z " fill="#98ADDC" transform="translate(128,301)"/>
<path d="M0 0 C-0.66 1.65 -1.32 3.3 -2 5 C-5 5 -5 5 -7.1875 3 C-7.785625 2.34 -8.38375 1.68 -9 1 C-5.57367167 -0.61798838 -3.61944899 -1.34053666 0 0 Z " fill="#4795D3" transform="translate(220,297)"/>
<path d="M0 0 C0.66 0.33 1.32 0.66 2 1 C-0.86874377 4.66561704 -2.75801529 7.0305071 -7 9 C-7.33 9.99 -7.66 10.98 -8 12 C-9.65 11.67 -11.3 11.34 -13 11 C-10.64722731 8.27573689 -8.37503669 7.1858237 -5 6 C-5 5.34 -5 4.68 -5 4 C-3.37373596 2.61767557 -1.7074998 1.28062485 0 0 Z " fill="#9EC5E7" transform="translate(202,272)"/>
<path d="M0 0 C0.268125 0.61875 0.53625 1.2375 0.8125 1.875 C1.95556848 4.2995233 1.95556848 4.2995233 5 6 C5.78561862 8.78537511 6 11.1003917 6 14 C6.3062434 15.33981486 6.63451555 16.67511887 7 18 C4.32520907 15.65476784 3.11833777 13.41711208 1.8125 10.125 C1.46832031 9.28195312 1.12414062 8.43890625 0.76953125 7.5703125 C-0.02757207 4.90790649 -0.14355008 2.7621015 0 0 Z " fill="#ABABE4" transform="translate(108,267)"/>
<path d="M0 0 C2.375 0.25 2.375 0.25 5 1 C6.0625 2.9375 6.0625 2.9375 7 5 C9.0335948 6.26804566 9.0335948 6.26804566 11 7 C11 7.99 11 8.98 11 10 C10.59136719 9.55011719 10.18273437 9.10023438 9.76171875 8.63671875 C7.87453987 6.8834417 6.13192342 5.91517671 3.8125 4.8125 C3.09707031 4.46832031 2.38164062 4.12414062 1.64453125 3.76953125 C1.10183594 3.51558594 0.55914062 3.26164062 0 3 C0 2.01 0 1.02 0 0 Z " fill="#77C0DF" transform="translate(284,263)"/>
<path d="M0 0 C2.91517292 1.07401108 4.77810176 1.77810176 7 4 C6.625 6.125 6.625 6.125 6 8 C4.02 7.01 2.04 6.02 0 5 C0 3.35 0 1.7 0 0 Z " fill="#7598D1" transform="translate(267,225)"/>
<path d="M0 0 C0.99 1.485 0.99 1.485 2 3 C0.02 2.34 -1.96 1.68 -4 1 C-4.33 2.32 -4.66 3.64 -5 5 C-7.62901288 3.47793991 -9.84365964 2.15634036 -12 0 C-7.26130173 -2.03087069 -4.69351215 -2.24008534 0 0 Z " fill="#BDE2F9" transform="translate(271,221)"/>
<path d="M0 0 C1.65 0.33 3.3 0.66 5 1 C3.63629701 3.99220268 2.05091917 6.29026529 -0.125 8.75 C-0.93324219 9.67039062 -0.93324219 9.67039062 -1.7578125 10.609375 C-2.16773438 11.06828125 -2.57765625 11.5271875 -3 12 C-3.66 11.67 -4.32 11.34 -5 11 C-4.0409375 10.2265625 -4.0409375 10.2265625 -3.0625 9.4375 C-0.44208319 6.34064377 -0.30610183 3.97932377 0 0 Z " fill="#80EAF6" transform="translate(376,290)"/>
<path d="M0 0 C1.98 0.66 3.96 1.32 6 2 C4.68 2.33 3.36 2.66 2 3 C2.0825 3.7425 2.165 4.485 2.25 5.25 C1.92894816 8.78157027 0.64734383 9.76630364 -2 12 C-2.66 11.67 -3.32 11.34 -4 11 C-3.505 10.566875 -3.01 10.13375 -2.5 9.6875 C-0.66781808 8.00259517 -0.66781808 8.00259517 -1 5 C-1.66 4.34 -2.32 3.68 -3 3 C-1.68 3 -0.36 3 1 3 C0.67 2.01 0.34 1.02 0 0 Z " fill="#B3E1F6" transform="translate(234,279)"/>
<path d="M0 0 C0.99 0.33 1.98 0.66 3 1 C3 1.66 3 2.32 3 3 C4.98 3.66 6.96 4.32 9 5 C9 6.65 9 8.3 9 10 C4.71095765 8.4114658 2.67654474 5.56872632 0 2 C0 1.34 0 0.68 0 0 Z " fill="#939FD7" transform="translate(119,291)"/>
<path d="M0 0 C2 3 2 3 1.625 5.1875 C1.41875 5.785625 1.2125 6.38375 1 7 C-1.31 6.67 -3.62 6.34 -6 6 C-5.67 5.01 -5.34 4.02 -5 3 C-4.34 3 -3.68 3 -3 3 C-3 2.34 -3 1.68 -3 1 C-2.01 0.67 -1.02 0.34 0 0 Z " fill="#5629C5" transform="translate(143,193)"/>
<path d="M0 0 C3.38891322 0.68886787 6.18011613 1.98716486 9.25 3.5625 C10.14203125 4.01753906 11.0340625 4.47257813 11.953125 4.94140625 C12.96632813 5.46541016 12.96632813 5.46541016 14 6 C11.36749612 7.31625194 10.19820944 6.74813658 7.375 6.0625 C6.55773437 5.86785156 5.74046875 5.67320312 4.8984375 5.47265625 C3.95871094 5.23869141 3.95871094 5.23869141 3 5 C3 4.34 3 3.68 3 3 C2.01 2.67 1.02 2.34 0 2 C0 1.34 0 0.68 0 0 Z " fill="#8EC7E3" transform="translate(351,190)"/>
<path d="M0 0 C1.65 0 3.3 0 5 0 C4.01 1.485 4.01 1.485 3 3 C2.36707617 5.11280345 2.36707617 5.11280345 2 7 C0.02 7.33 -1.96 7.66 -4 8 C-3.67 7.34 -3.34 6.68 -3 6 C-2.34 6.33 -1.68 6.66 -1 7 C-0.67 4.69 -0.34 2.38 0 0 Z " fill="#2FD5EE" transform="translate(264,272)"/>
<path d="M0 0 C-2.87164566 2.70272533 -4.30991841 3.94791837 -8.3125 4.25 C-9.199375 4.1675 -10.08625 4.085 -11 4 C-11 4.66 -11 5.32 -11 6 C-12.32 5.67 -13.64 5.34 -15 5 C-13.06891037 3.96709159 -11.129882 2.94901328 -9.1875 1.9375 C-8.10855469 1.36902344 -7.02960938 0.80054688 -5.91796875 0.21484375 C-3 -1 -3 -1 0 0 Z " fill="#A4C9E8" transform="translate(305,191)"/>
<path d="M0 0 C0.66 0 1.32 0 2 0 C2.66 0.99 3.32 1.98 4 3 C6.32817964 3.36760731 8.6618385 3.70241581 11 4 C11.33 4.66 11.66 5.32 12 6 C8.8125 6.875 8.8125 6.875 5 7 C2.73308661 5.22686972 1.61682642 3.44973701 0 1 C0 0.67 0 0.34 0 0 Z " fill="#6EADDA" transform="translate(224,270)"/>
<path d="M0 0 C0.99 0.33 1.98 0.66 3 1 C2.34 2.98 1.68 4.96 1 7 C-0.65 6.67 -2.3 6.34 -4 6 C-2.68 4.02 -1.36 2.04 0 0 Z " fill="#3D7FD0" transform="translate(286,201)"/>
<path d="M0 0 C3.7952131 1.49097658 5.61042731 3.75700849 8 7 C5.50638429 5.79618552 3.31856917 4.54571278 1 3 C1 3.66 1 4.32 1 5 C-0.32 5 -1.64 5 -3 5 C-1.125 1.125 -1.125 1.125 0 0 Z " fill="#42A9D4" transform="translate(368,201)"/>
<path d="M0 0 C0.79921875 0.01804687 1.5984375 0.03609375 2.421875 0.0546875 C3.02515625 0.07789063 3.6284375 0.10109375 4.25 0.125 C3.25 2.125 3.25 2.125 0.5625 3.25 C-2.7079435 4.11389074 -5.38706182 4.28513991 -8.75 4.125 C-8.75 3.465 -8.75 2.805 -8.75 2.125 C-5.68753253 0.34090198 -3.52920727 -0.10380021 0 0 Z " fill="#84B3DE" transform="translate(193.75,311.875)"/>
<path d="M0 0 C0.66 0 1.32 0 2 0 C2.66 1.32 3.32 2.64 4 4 C1.1875 5.5625 1.1875 5.5625 -2 7 C-2.99 6.67 -3.98 6.34 -5 6 C-3.38405168 3.95880212 -1.7143618 1.95927063 0 0 Z " fill="#3D85CA" transform="translate(198,306)"/>
<path d="M0 0 C0.66 0.33 1.32 0.66 2 1 C1.25675659 3.39489543 0.52942646 4.70777616 -1.69140625 5.93359375 C-3.44073501 6.67219923 -5.21934149 7.34049685 -7 8 C-6.625 5.5625 -6.625 5.5625 -6 3 C-3.50907189 1.75453595 -2.58919267 2.2232422 0 3 C0 2.01 0 1.02 0 0 Z " fill="#8CA9DE" transform="translate(234,216)"/>
<path d="M0 0 C-2.5654594 2.5654594 -4.47686668 2.54046087 -8 3 C-8 3.66 -8 4.32 -8 5 C-8.99 5.33 -9.98 5.66 -11 6 C-11.99 5.34 -12.98 4.68 -14 4 C-4.80508475 -1.77966102 -4.80508475 -1.77966102 0 0 Z " fill="#A794DF" transform="translate(155,189)"/>
<path d="M0 0 C1.43931117 0.45261358 2.87638999 0.91232979 4.3125 1.375 C5.11300781 1.63023437 5.91351563 1.88546875 6.73828125 2.1484375 C9 3 9 3 12 5 C4.15 5.30192308 4.15 5.30192308 1 3 C0.67 2.01 0.34 1.02 0 0 Z " fill="#69CAE2" transform="translate(313,284)"/>
<path d="M0 0 C0 1.32 0 2.64 0 4 C0.2981424 5.34164079 0.62243192 6.67851173 1 8 C-1.62187494 6.95125002 -2.79371361 6.35068687 -4.25 3.875 C-4.4975 3.25625 -4.745 2.6375 -5 2 C-2 0 -2 0 0 0 Z " fill="#6DC0DB" transform="translate(269,283)"/>
<path d="M0 0 C4.43458973 1.3937282 6.87378374 3.60582235 10 7 C9.34 7.66 8.68 8.32 8 9 C6.84775972 8.07038578 5.70340824 7.1309875 4.5625 6.1875 C3.60537109 5.40439453 3.60537109 5.40439453 2.62890625 4.60546875 C1 3 1 3 0 0 Z " fill="#78C5DF" transform="translate(347,220)"/>
<path d="M0 0 C2.97 0.495 2.97 0.495 6 1 C4.19587357 4.26460973 3.16605307 5.88929795 0 8 C0 5.36 0 2.72 0 0 Z " fill="#6A5DC4" transform="translate(144,221)"/>
<path d="M0 0 C0.66 0.33 1.32 0.66 2 1 C2 1.66 2 2.32 2 3 C2.99 3 3.98 3 5 3 C5 3.99 5 4.98 5 6 C2.03 5.67 -0.94 5.34 -4 5 C-2.68 4.34 -1.36 3.68 0 3 C0 2.01 0 1.02 0 0 Z " fill="#4262C1" transform="translate(229,213)"/>
<path d="M0 0 C0.99 0.33 1.98 0.66 3 1 C3.5625 2.9375 3.5625 2.9375 4 5 C4.66 5.66 5.32 6.32 6 7 C2.25 8.125 2.25 8.125 0 7 C0 4.69 0 2.38 0 0 Z " fill="#4383C8" transform="translate(217,271)"/>
<path d="M0 0 C3.63 0.33 7.26 0.66 11 1 C11.33 2.32 11.66 3.64 12 5 C10.37276701 4.54965877 8.74826336 4.08944646 7.125 3.625 C5.76761719 3.24214844 5.76761719 3.24214844 4.3828125 2.8515625 C2 2 2 2 0 0 Z " fill="#9EACDF" transform="translate(180,217)"/>
<path d="M0 0 C1.60495567 0.11442461 3.20898119 0.24194694 4.8125 0.375 C5.70582031 0.44460937 6.59914062 0.51421875 7.51953125 0.5859375 C10 1 10 1 13 3 C12.67 3.66 12.34 4.32 12 5 C9 5 9 5 7 4 C7 3.34 7 2.68 7 2 C4.69 2 2.38 2 0 2 C0 1.34 0 0.68 0 0 Z " fill="#4D44BB" transform="translate(185,189)"/>
<path d="M0 0 C1.45947705 0.06006078 2.91779272 0.1488689 4.375 0.25 C5.59316406 0.31960938 5.59316406 0.31960938 6.8359375 0.390625 C9 1 9 1 10.2890625 3.046875 C10.64097656 4.01367188 10.64097656 4.01367188 11 5 C9.35153231 4.55123384 7.70626545 4.09069512 6.0625 3.625 C5.14597656 3.36976563 4.22945312 3.11453125 3.28515625 2.8515625 C1 2 1 2 0 0 Z " fill="#8EAADB" transform="translate(141,310)"/>
<path d="M0 0 C0.66 0.33 1.32 0.66 2 1 C-2.625 5 -2.625 5 -6 5 C-6 5.66 -6 6.32 -6 7 C-6.99 7 -7.98 7 -9 7 C-9 6.01 -9 5.02 -9 4 C-7.54618103 3.30300448 -6.08677047 2.61766134 -4.625 1.9375 C-3.40683594 1.36322266 -3.40683594 1.36322266 -2.1640625 0.77734375 C-1.44992187 0.52082031 -0.73578125 0.26429688 0 0 Z " fill="#9CEBF5" transform="translate(368,303)"/>
<path d="M0 0 C1.14769226 3.44307679 1 6.40094235 1 10 C0.34 10 -0.32 10 -1 10 C-2.76462683 6.91190305 -3 5.76687864 -3 2 C-2.01 1.34 -1.02 0.68 0 0 Z " fill="#7581CF" transform="translate(118,281)"/>
<path d="M0 0 C0.268125 0.639375 0.53625 1.27875 0.8125 1.9375 C1.88667752 4.33131686 1.88667752 4.33131686 5 5 C4.195625 5.12375 3.39125 5.2475 2.5625 5.375 C1.2940625 5.684375 1.2940625 5.684375 0 6 C-0.33 6.66 -0.66 7.32 -1 8 C-1.66 6.35 -2.32 4.7 -3 3 C-2.01 3.495 -2.01 3.495 -1 4 C-0.67 2.68 -0.34 1.36 0 0 Z " fill="#BCEAF6" transform="translate(282,236)"/>
<path d="M0 0 C0.66 0.33 1.32 0.66 2 1 C2.185625 1.8971875 2.185625 1.8971875 2.375 2.8125 C3.20055523 5.70194332 4.80351643 7.01607936 7 9 C4.07120629 8.37240135 1.63904371 7.41377341 -1 6 C-0.67 4.02 -0.34 2.04 0 0 Z " fill="#4B81C5" transform="translate(268,214)"/>
<path d="M0 0 C1.36125 0.12375 1.36125 0.12375 2.75 0.25 C0.75 3.25 0.75 3.25 -1.1953125 3.76171875 C-1.91460937 3.81972656 -2.63390625 3.87773437 -3.375 3.9375 C-5.293125 4.0921875 -5.293125 4.0921875 -7.25 4.25 C-4.83923194 1.28290085 -3.90322061 0.30024774 0 0 Z " fill="#6C9CD5" transform="translate(291.25,196.75)"/>
<path d="M0 0 C0.66 0 1.32 0 2 0 C3.32 2.31 4.64 4.62 6 7 C5.34 7.66 4.68 8.32 4 9 C3.896875 8.360625 3.79375 7.72125 3.6875 7.0625 C3.460625 6.381875 3.23375 5.70125 3 5 C2.01 4.67 1.02 4.34 0 4 C0 2.68 0 1.36 0 0 Z " fill="#3BBFE2" transform="translate(382,219)"/>
<path d="M0 0 C-1.65 1.98 -3.3 3.96 -5 6 C-5.5534764 3.92446352 -6 2.15634036 -6 0 C-3 -1 -3 -1 0 0 Z " fill="#819FDB" transform="translate(227,224)"/>
<path d="M0 0 C0.66 0 1.32 0 2 0 C2.309375 0.94875 2.61875 1.8975 2.9375 2.875 C3.87394742 5.86080408 3.87394742 5.86080408 5 8 C2.33333333 6.66666667 -0.33333333 5.33333333 -3 4 C-3 3.34 -3 2.68 -3 2 C-2.01 2 -1.02 2 0 2 C0 1.34 0 0.68 0 0 Z " fill="#879BDA" transform="translate(195,220)"/>
<path d="M0 0 C1.98 0 3.96 0 6 0 C5.67 1.32 5.34 2.64 5 4 C3.02 4 1.04 4 -1 4 C-0.67 2.68 -0.34 1.36 0 0 Z " fill="#466DC9" transform="translate(142,306)"/>
<path d="M0 0 C1.32 0.33 2.64 0.66 4 1 C3.01 1.33 2.02 1.66 1 2 C0.67 3.65 0.34 5.3 0 7 C-1.32 6.67 -2.64 6.34 -4 6 C-4 5.34 -4 4.68 -4 4 C-3.01 4 -2.02 4 -1 4 C-0.67 2.68 -0.34 1.36 0 0 Z " fill="#4BCCE5" transform="translate(347,281)"/>
<path d="M0 0 C0.33 0 0.66 0 1 0 C1 2.64 1 5.28 1 8 C0.01 8.33 -0.98 8.66 -2 9 C-1.125 1.125 -1.125 1.125 0 0 Z " fill="#5A37C6" transform="translate(223,241)"/>
<path d="M0 0 C1.9375 0.625 1.9375 0.625 4 2 C5.05588692 5.73621526 5.0440553 8.31791183 4 12 C3.3291288 10.3767313 2.66342971 8.75132422 2 7.125 C1.62875 6.22007812 1.2575 5.31515625 0.875 4.3828125 C0 2 0 2 0 0 Z " fill="#9BDCF0" transform="translate(358,232)"/>
<path d="M0 0 C0.12375 0.639375 0.2475 1.27875 0.375 1.9375 C0.684375 2.9584375 0.684375 2.9584375 1 4 C1.66 4.33 2.32 4.66 3 5 C0.50935112 5.68707555 -1.37886292 6 -4 6 C-2.84826645 3.53199953 -1.95216435 1.95216435 0 0 Z " fill="#5529BA" transform="translate(125,206)"/>
<path d="M0 0 C3.0831351 1.19899698 6.06279492 2.47700477 9 4 C6.21176345 5.0326802 5.1322726 5.04509293 2.25 4.0625 C1.5075 3.711875 0.765 3.36125 0 3 C0 2.01 0 1.02 0 0 Z " fill="#97A0DB" transform="translate(204,194)"/>
<path d="M0 0 C2.64 0 5.28 0 8 0 C6.515 1.485 6.515 1.485 5 3 C5.99 4.485 5.99 4.485 7 6 C4.50638429 4.79618552 2.31856917 3.54571278 0 2 C0 1.34 0 0.68 0 0 Z " fill="#7CCFEB" transform="translate(270,291)"/>
<path d="M0 0 C0.99 0.33 1.98 0.66 3 1 C2.42655063 3.86724686 2.1385485 4.8614515 0 7 C-2.125 6.625 -2.125 6.625 -4 6 C-3.34 5.38125 -2.68 4.7625 -2 4.125 C0.2284549 2.24362573 0.2284549 2.24362573 0 0 Z " fill="#458EC6" transform="translate(231,283)"/>
<path d="M0 0 C0.33 0.99 0.66 1.98 1 3 C1.66 3 2.32 3 3 3 C3.93065133 5.60582371 4.14917407 6.64198224 3.0625 9.25 C2.711875 9.8275 2.36125 10.405 2 11 C0.57741188 7.17679443 -0.24042276 4.08718695 0 0 Z " fill="#4E45B6" transform="translate(108,262)"/>
<path d="M0 0 C0.33 0.66 0.66 1.32 1 2 C-2.75 7.875 -2.75 7.875 -5 9 C-4.7452486 7.68428397 -4.47065859 6.37239624 -4.1875 5.0625 C-4.03667969 4.33160156 -3.88585937 3.60070312 -3.73046875 2.84765625 C-3.48941406 2.23792969 -3.24835938 1.62820313 -3 1 C-2.01 0.67 -1.02 0.34 0 0 Z " fill="#88E9F1" transform="translate(278,265)"/>
<path d="M0 0 C3 1 3 1 4.1875 3.25 C4.99938294 5.99791147 5.16260121 8.15447889 5 11 C4.731875 10.401875 4.46375 9.80375 4.1875 9.1875 C3.12897949 6.95745037 3.12897949 6.95745037 1.375 5.5 C0 4 0 4 0 0 Z " fill="#85DAEC" transform="translate(387,226)"/>
<path d="M0 0 C0.66 0 1.32 0 2 0 C2 1.32 2 2.64 2 4 C3.65 4.33 5.3 4.66 7 5 C6.67 5.99 6.34 6.98 6 8 C5.34 8 4.68 8 4 8 C4 7.34 4 6.68 4 6 C2.68 5.34 1.36 4.68 0 4 C0 2.66666667 0 1.33333333 0 0 Z " fill="#7992D7" transform="translate(201,226)"/>
<path d="M0 0 C2.97 0.495 2.97 0.495 6 1 C6 1.99 6 2.98 6 4 C4.02 4.99 4.02 4.99 2 6 C2 4.68 2 3.36 2 2 C1.34 1.34 0.68 0.68 0 0 Z " fill="#504BC6" transform="translate(196,194)"/>
<path d="M0 0 C2.3125 0.1875 2.3125 0.1875 5 1 C6.8125 3.5625 6.8125 3.5625 8 6 C4.08597051 4.73058503 2.20927127 3.48832306 0 0 Z " fill="#83D3E9" transform="translate(277,297)"/>
<path d="M0 0 C0.66 0.33 1.32 0.66 2 1 C1.67 2.32 1.34 3.64 1 5 C-1.97 4.505 -1.97 4.505 -5 4 C-3.73293765 1.46587529 -2.59334288 1.02161992 0 0 Z " fill="#32D0E9" transform="translate(277,261)"/>
<path d="M0 0 C0.33 1.32 0.66 2.64 1 4 C-0.98 5.32 -2.96 6.64 -5 8 C-3.8141763 4.62496331 -2.72426311 2.35277269 0 0 Z " fill="#A795DD" transform="translate(120,210)"/>
<path d="M0 0 C1.65 0 3.3 0 5 0 C5.33 1.32 5.66 2.64 6 4 C3.69 3.34 1.38 2.68 -1 2 C-0.67 1.34 -0.34 0.68 0 0 Z " fill="#7BB8DC" transform="translate(344,188)"/>
<path d="M0 0 C1.32 0.99 2.64 1.98 4 3 C1.625 4.0625 1.625 4.0625 -1 5 C-1.66 4.67 -2.32 4.34 -3 4 C-2.67 3.01 -2.34 2.02 -2 1 C-1.34 0.67 -0.68 0.34 0 0 Z " fill="#39A9DB" transform="translate(276,287)"/>
<path d="M0 0 C0.66 0 1.32 0 2 0 C1.49287967 3.71888239 0.88391785 6.73454239 -1 10 C-1.125 2.25 -1.125 2.25 0 0 Z " fill="#83E5F1" transform="translate(390,267)"/>
<path d="M0 0 C1.98 0.495 1.98 0.495 4 1 C3.34 3.31 2.68 5.62 2 8 C1.01 7.67 0.02 7.34 -1 7 C-0.01 6.67 0.98 6.34 2 6 C1.34 4.02 0.68 2.04 0 0 Z " fill="#8EABDF" transform="translate(214,234)"/>
<path d="M0 0 C-2.31 1.65 -4.62 3.3 -7 5 C-7 3.35 -7 1.7 -7 0 C-2.25 -1.125 -2.25 -1.125 0 0 Z " fill="#7DBBE1" transform="translate(303,227)"/>
<path d="M0 0 C0.66 0.33 1.32 0.66 2 1 C1.01 2.98 0.02 4.96 -1 7 C-1.99 7 -2.98 7 -4 7 C-4 6.01 -4 5.02 -4 4 C-3.34 4 -2.68 4 -2 4 C-1.34 2.68 -0.68 1.36 0 0 Z " fill="#A3C3E2" transform="translate(268,212)"/>
<path d="M0 0 C3.14737182 0.69941596 6.02588876 1.76078698 9 3 C8.34 3.66 7.68 4.32 7 5 C5.0625 4.875 5.0625 4.875 3 4 C1.25 1.9375 1.25 1.9375 0 0 Z " fill="#9699DD" transform="translate(195,190)"/>
<path d="M0 0 C0 0.66 0 1.32 0 2 C-7.42857143 4.14285714 -7.42857143 4.14285714 -11 5 C-7.62661234 1.12685121 -5.10143816 0 0 0 Z " fill="#4282C3" transform="translate(312,189)"/>
<path d="M0 0 C-0.33 0.66 -0.66 1.32 -1 2 C-4.0625 2.625 -4.0625 2.625 -7 3 C-7.33 2.34 -7.66 1.68 -8 1 C-4.93251126 -0.86240388 -3.40254489 -1.2151946 0 0 Z " fill="#5186C9" transform="translate(186,314)"/>
<path d="M0 0 C3.68754757 0.49831724 5.60490662 1.10067643 8 4 C7.01 4.33 6.02 4.66 5 5 C3.35 3.35 1.7 1.7 0 0 Z " fill="#4F67B9" transform="translate(128,300)"/>
<path d="M0 0 C0.99 0.99 1.98 1.98 3 3 C2.67 3.99 2.34 4.98 2 6 C1.34 6 0.68 6 0 6 C-0.66 4.35 -1.32 2.7 -2 1 C-1.34 0.67 -0.68 0.34 0 0 Z " fill="#5759C6" transform="translate(114,277)"/>
<path d="M0 0 C4.875 4.75 4.875 4.75 6 7 C4.35 6.67 2.7 6.34 1 6 C0.67 4.02 0.34 2.04 0 0 Z " fill="#92A1D9" transform="translate(142,272)"/>
<path d="M0 0 C0.33 1.32 0.66 2.64 1 4 C1.66 4 2.32 4 3 4 C3.33 5.98 3.66 7.96 4 10 C2 8.9375 2 8.9375 0 7 C-0.25 3.3125 -0.25 3.3125 0 0 Z " fill="#8B93D3" transform="translate(135,256)"/>
<path d="M0 0 C1.32 0 2.64 0 4 0 C4 1.98 4 3.96 4 6 C3.01 5.67 2.02 5.34 1 5 C0.67 3.35 0.34 1.7 0 0 Z " fill="#4857C5" transform="translate(220,256)"/>
<path d="M0 0 C-0.33 0.99 -0.66 1.98 -1 3 C-2.98 3.33 -4.96 3.66 -7 4 C-3.375 0 -3.375 0 0 0 Z " fill="#4E95CF" transform="translate(304,223)"/>
<path d="M0 0 C0.99 0.33 1.98 0.66 3 1 C3.33 1.99 3.66 2.98 4 4 C1.69 4 -0.62 4 -3 4 C-3 3.34 -3 2.68 -3 2 C-2.01 1.34 -1.02 0.68 0 0 Z " fill="#5238C9" transform="translate(139,224)"/>
<path d="M0 0 C0.598125 0.20625 1.19625 0.4125 1.8125 0.625 C1.4825 1.615 1.1525 2.605 0.8125 3.625 C-1.1675 2.965 -3.1475 2.305 -5.1875 1.625 C-2.1875 -0.375 -2.1875 -0.375 0 0 Z " fill="#35A5D4" transform="translate(349.1875,217.375)"/>
</svg>
